<?xml version="1.0" encoding="UTF-8"?>
<svg id="svg-body" width="96%" height="160px" viewBox="0 0 1060 160" version="1.1" xmlns="http://www.w3.org/2000/svg" xmlns:xlink="http://www.w3.org/1999/xlink">
    <!-- Generator: Sketch 53.2 (72643) - https://sketchapp.com -->
    <title> </title>
    <desc>Created with Sketch.</desc>
    <defs>
        <linearGradient x1="100%" y1="50%" x2="0%" y2="50%" id="linearGradient-1">
            <stop stop-color="#3985FF" stop-opacity="0.6" offset="0%"></stop>
            <stop stop-color="#0766FF" offset="100%"></stop>
        </linearGradient>
        <linearGradient x1="100%" y1="50%" x2="0%" y2="50%" id="linearGradient-2">
            <stop stop-color="#3985FF" stop-opacity="0.6" offset="0%"></stop>
            <stop stop-color="#0766FF" offset="100%"></stop>
        </linearGradient>
        <linearGradient x1="100%" y1="50%" x2="-115.289069%" y2="50%" id="linearGradient-3">
            <stop stop-color="#3985FF" stop-opacity="0.6" offset="0%"></stop>
            <stop stop-color="#0766FF" offset="100%"></stop>
        </linearGradient>
        <rect id="path-4" x="0" y="0" width="120" height="40" rx="20"></rect>
        <filter x="-17.5%" y="-52.5%" width="135.0%" height="205.0%" filterUnits="objectBoundingBox" id="filter-5">
            <feOffset dx="0" dy="0" in="SourceAlpha" result="shadowOffsetOuter1"></feOffset>
            <feGaussianBlur stdDeviation="7" in="shadowOffsetOuter1" result="shadowBlurOuter1"></feGaussianBlur>
            <feColorMatrix values="0 0 0 0 0   0 0 0 0 0   0 0 0 0 0  0 0 0 0.06 0" type="matrix" in="shadowBlurOuter1"></feColorMatrix>
        </filter>
        <linearGradient x1="100%" y1="40.3711862%" x2="0%" y2="40.3711862%" id="linearGradient-6">
            <stop stop-color="#78AAFF" offset="0%"></stop>
            <stop stop-color="#3D75FD" offset="100%"></stop>
        </linearGradient>
        <circle id="path-7" cx="11" cy="11" r="11"></circle>
        <filter x="-72.7%" y="-63.6%" width="245.5%" height="245.5%" filterUnits="objectBoundingBox" id="filter-8">
            <feOffset dx="0" dy="2" in="SourceAlpha" result="shadowOffsetOuter1"></feOffset>
            <feGaussianBlur stdDeviation="5" in="shadowOffsetOuter1" result="shadowBlurOuter1"></feGaussianBlur>
            <feColorMatrix values="0 0 0 0 0.0989759341   0 0 0 0 0.55159533   0 0 0 0 1  0 0 0 0.2 0" type="matrix" in="shadowBlurOuter1"></feColorMatrix>
        </filter>
        <rect id="path-9" x="0" y="0" width="120" height="40" rx="20"></rect>
        <filter x="-17.5%" y="-52.5%" width="135.0%" height="205.0%" filterUnits="objectBoundingBox" id="filter-10">
            <feOffset dx="0" dy="0" in="SourceAlpha" result="shadowOffsetOuter1"></feOffset>
            <feGaussianBlur stdDeviation="7" in="shadowOffsetOuter1" result="shadowBlurOuter1"></feGaussianBlur>
            <feColorMatrix values="0 0 0 0 0   0 0 0 0 0   0 0 0 0 0  0 0 0 0.06 0" type="matrix" in="shadowBlurOuter1"></feColorMatrix>
        </filter>
        <circle id="path-11" cx="11" cy="11" r="11"></circle>
        <filter x="-72.7%" y="-63.6%" width="245.5%" height="245.5%" filterUnits="objectBoundingBox" id="filter-12">
            <feOffset dx="0" dy="2" in="SourceAlpha" result="shadowOffsetOuter1"></feOffset>
            <feGaussianBlur stdDeviation="5" in="shadowOffsetOuter1" result="shadowBlurOuter1"></feGaussianBlur>
            <feColorMatrix values="0 0 0 0 0.0989759341   0 0 0 0 0.55159533   0 0 0 0 1  0 0 0 0.2 0" type="matrix" in="shadowBlurOuter1"></feColorMatrix>
        </filter>
        <rect id="path-13" x="0" y="0" width="120" height="40" rx="20"></rect>
        <filter x="-17.5%" y="-52.5%" width="135.0%" height="205.0%" filterUnits="objectBoundingBox" id="filter-14">
            <feOffset dx="0" dy="0" in="SourceAlpha" result="shadowOffsetOuter1"></feOffset>
            <feGaussianBlur stdDeviation="7" in="shadowOffsetOuter1" result="shadowBlurOuter1"></feGaussianBlur>
            <feColorMatrix values="0 0 0 0 0   0 0 0 0 0   0 0 0 0 0  0 0 0 0.06 0" type="matrix" in="shadowBlurOuter1"></feColorMatrix>
        </filter>
        <circle id="path-15" cx="11" cy="11" r="11"></circle>
        <filter x="-72.7%" y="-63.6%" width="245.5%" height="245.5%" filterUnits="objectBoundingBox" id="filter-16">
            <feOffset dx="0" dy="2" in="SourceAlpha" result="shadowOffsetOuter1"></feOffset>
            <feGaussianBlur stdDeviation="5" in="shadowOffsetOuter1" result="shadowBlurOuter1"></feGaussianBlur>
            <feColorMatrix values="0 0 0 0 0.0989759341   0 0 0 0 0.55159533   0 0 0 0 1  0 0 0 0.2 0" type="matrix" in="shadowBlurOuter1"></feColorMatrix>
        </filter>
        <rect id="path-17" x="0" y="0" width="120" height="40" rx="20"></rect>
        <filter x="-17.5%" y="-52.5%" width="135.0%" height="205.0%" filterUnits="objectBoundingBox" id="filter-18">
            <feOffset dx="0" dy="0" in="SourceAlpha" result="shadowOffsetOuter1"></feOffset>
            <feGaussianBlur stdDeviation="7" in="shadowOffsetOuter1" result="shadowBlurOuter1"></feGaussianBlur>
            <feColorMatrix values="0 0 0 0 0   0 0 0 0 0   0 0 0 0 0  0 0 0 0.06 0" type="matrix" in="shadowBlurOuter1"></feColorMatrix>
        </filter>
        <circle id="path-19" cx="11" cy="11" r="11"></circle>
        <filter x="-72.7%" y="-63.6%" width="245.5%" height="245.5%" filterUnits="objectBoundingBox" id="filter-20">
            <feOffset dx="0" dy="2" in="SourceAlpha" result="shadowOffsetOuter1"></feOffset>
            <feGaussianBlur stdDeviation="5" in="shadowOffsetOuter1" result="shadowBlurOuter1"></feGaussianBlur>
            <feColorMatrix values="0 0 0 0 0.0989759341   0 0 0 0 0.55159533   0 0 0 0 1  0 0 0 0.2 0" type="matrix" in="shadowBlurOuter1"></feColorMatrix>
        </filter>
        <rect id="path-21" x="0" y="0" width="120" height="40" rx="20"></rect>
        <filter x="-17.5%" y="-52.5%" width="135.0%" height="205.0%" filterUnits="objectBoundingBox" id="filter-22">
            <feOffset dx="0" dy="0" in="SourceAlpha" result="shadowOffsetOuter1"></feOffset>
            <feGaussianBlur stdDeviation="7" in="shadowOffsetOuter1" result="shadowBlurOuter1"></feGaussianBlur>
            <feColorMatrix values="0 0 0 0 0   0 0 0 0 0   0 0 0 0 0  0 0 0 0.06 0" type="matrix" in="shadowBlurOuter1"></feColorMatrix>
        </filter>
        <circle id="path-23" cx="11" cy="11" r="11"></circle>
        <filter x="-72.7%" y="-63.6%" width="245.5%" height="245.5%" filterUnits="objectBoundingBox" id="filter-24">
            <feOffset dx="0" dy="2" in="SourceAlpha" result="shadowOffsetOuter1"></feOffset>
            <feGaussianBlur stdDeviation="5" in="shadowOffsetOuter1" result="shadowBlurOuter1"></feGaussianBlur>
            <feColorMatrix values="0 0 0 0 0.0989759341   0 0 0 0 0.55159533   0 0 0 0 1  0 0 0 0.2 0" type="matrix" in="shadowBlurOuter1"></feColorMatrix>
        </filter>
        <rect id="path-25" x="0" y="0" width="120" height="40" rx="20"></rect>
        <mask id="mask-26" maskContentUnits="userSpaceOnUse" maskUnits="objectBoundingBox" x="0" y="0" width="120" height="40" fill="white">
            <use xlink:href="#path-25"></use>
        </mask>
        <linearGradient x1="100%" y1="176.856341%" x2="100%" y2="0%" id="linearGradient-27">
            <stop stop-color="#0766FF" offset="0%"></stop>
            <stop stop-color="#3985FF" stop-opacity="0.6" offset="100%"></stop>
        </linearGradient>
        <rect id="path-28" x="0" y="0" width="120" height="40" rx="20"></rect>
        <mask id="mask-29" maskContentUnits="userSpaceOnUse" maskUnits="objectBoundingBox" x="0" y="0" width="120" height="40" fill="white">
            <use xlink:href="#path-28"></use>
        </mask>
        <rect id="path-30" x="0" y="0" width="120" height="40" rx="20"></rect>
        <mask id="mask-31" maskContentUnits="userSpaceOnUse" maskUnits="objectBoundingBox" x="0" y="0" width="120" height="40" fill="white">
            <use xlink:href="#path-30"></use>
        </mask>
        <linearGradient x1="100%" y1="176.856341%" x2="100%" y2="0%" id="linearGradient-32">
            <stop stop-color="#0766FF" offset="0%"></stop>
            <stop stop-color="#3985FF" stop-opacity="0.6" offset="100%"></stop>
        </linearGradient>
    </defs>
    <g id="门户界面" stroke="none" stroke-width="1" fill="none" fill-rule="evenodd">
        <g id="切图" transform="translate(-61.000000, -1170.000000)">
            <g id="步骤图" transform="translate(80.000000, 1180.000000)">
                <path id="箭头" d="M195.5,51 L194,51 L194,50 L195.5,50 L195.5,46 L204.5,50.5 L195.5,55 L195.5,51 Z M134,51 L134,50 L136,50 L136,51 L134,51 Z M138,51 L138,50 L140,50 L140,51 L138,51 Z M142,51 L142,50 L144,50 L144,51 L142,51 Z M146,51 L146,50 L148,50 L148,51 L146,51 Z M150,51 L150,50 L152,50 L152,51 L150,51 Z M154,51 L154,50 L156,50 L156,51 L154,51 Z M158,51 L158,50 L160,50 L160,51 L158,51 Z M162,51 L162,50 L164,50 L164,51 L162,51 Z M166,51 L166,50 L168,50 L168,51 L166,51 Z M170,51 L170,50 L172,50 L172,51 L170,51 Z M174,51 L174,50 L176,50 L176,51 L174,51 Z M178,51 L178,50 L180,50 L180,51 L178,51 Z M182,51 L182,50 L184,50 L184,51 L182,51 Z M186,51 L186,50 L188,50 L188,51 L186,51 Z M190,51 L190,50 L192,50 L192,51 L190,51 Z" fill="url(#linearGradient-1)" fill-rule="nonzero"></path>
                <path id="箭头" d="M415.5,51 L414,51 L414,50 L415.5,50 L415.5,46 L424.5,50.5 L415.5,55 L415.5,51 Z M354,51 L354,50 L356,50 L356,51 L354,51 Z M358,51 L358,50 L360,50 L360,51 L358,51 Z M362,51 L362,50 L364,50 L364,51 L362,51 Z M366,51 L366,50 L368,50 L368,51 L366,51 Z M370,51 L370,50 L372,50 L372,51 L370,51 Z M374,51 L374,50 L376,50 L376,51 L374,51 Z M378,51 L378,50 L380,50 L380,51 L378,51 Z M382,51 L382,50 L384,50 L384,51 L382,51 Z M386,51 L386,50 L388,50 L388,51 L386,51 Z M390,51 L390,50 L392,50 L392,51 L390,51 Z M394,51 L394,50 L396,50 L396,51 L394,51 Z M398,51 L398,50 L400,50 L400,51 L398,51 Z M402,51 L402,50 L404,50 L404,51 L402,51 Z M406,51 L406,50 L408,50 L408,51 L406,51 Z M410,51 L410,50 L412,50 L412,51 L410,51 Z" fill="url(#linearGradient-1)" fill-rule="nonzero"></path>
                <path id="箭头" d="M881.499875,19.6070005 L872.401383,23.9043775 L872.602878,14.9066333 L881.499875,19.6070005 Z M564,51 L564,50 C565.000409,50 565.000409,50 565.997325,50 L565.997325,51 C565.000409,51 565.000409,51 564,51 Z M567.994441,51 L567.994441,50 C568.992921,50 568.992921,50 569.987848,50 L569.987848,51 C568.992921,51 568.992921,51 567.994441,51 Z M571.997546,51 L571.997546,50 C573.00304,50 573.00304,50 574.004852,50 L574.004852,51 C573.00304,51 573.00304,51 571.997546,51 Z M575.997616,51 L575.997616,50 C576.999109,50 576.999109,50 577.996868,50 L577.996868,51 C576.999109,51 576.999109,51 575.997616,51 Z M579.993314,51 L579.993314,50 C580.999367,50 580.999367,50 582.001567,50 L582.001567,51 C580.999367,51 580.999367,51 579.993314,51 Z M584.002928,51 L584.002928,50 C585.002888,50 585.002888,50 585.998951,50 L585.998951,51 C585.002888,51 585.002888,51 584.002928,51 Z M588.004997,51 L588.004997,50 C589.006987,50 589.006987,50 590.004971,50 L590.004971,51 C589.006987,51 589.006987,51 588.004997,51 Z M591.998136,51 L591.998136,50 C593.000858,50 593.000858,50 593.99947,50 L593.99947,51 C593.000858,51 593.000858,51 591.998136,51 Z M595.999888,51 L595.999888,50 C597.001932,50 597.001932,50 597.999768,50 L597.999768,51 C597.001932,51 597.001932,51 595.999888,51 Z M600.008124,51 L600.008124,50 C601.008094,50 601.008094,50 602.003765,50 L602.003765,51 C601.008094,51 601.008094,51 600.008124,51 Z M604.002234,51 L604.002234,50 C605.006939,50 605.006939,50 606.007188,50 L606.007188,51 C605.006939,51 605.006939,51 604.002234,51 Z M607.998978,51 L607.998978,50 C608.998764,50 608.998764,50 609.99402,50 L609.99402,51 C608.998764,51 608.998764,51 607.998978,51 Z M611.996147,51 L611.996147,50 C612.997275,50 612.997275,50 613.993733,50 L613.993733,51 C612.997275,51 612.997275,51 611.996147,51 Z M615.991504,51 L615.991504,50 C616.992194,50 616.992194,50 617.988084,50 L617.988084,51 C616.992194,51 616.992194,51 615.991504,51 Z M620.000237,51 L620.000237,50 C621.00574,50 621.00574,50 622.006252,50 L622.006252,51 C621.00574,51 621.00574,51 620.000237,51 Z M624.002072,51 L624.002072,50 C625.003278,50 625.003278,50 625.999385,50 L625.999385,51 C625.003278,51 625.003278,51 624.002072,51 Z M627.994672,51 L627.994672,50 C628.996569,50 628.996569,50 629.993199,50 L629.993199,51 C628.996569,51 628.996569,51 627.994672,51 Z M631.99233,51 L631.99233,50 C632.992646,50 632.992646,50 633.987541,50 L633.987541,51 C632.992646,51 632.992646,51 631.99233,51 Z M635.991834,51 L635.991834,50 C636.994566,50 636.994566,50 637.991669,50 L637.991669,51 C636.994566,51 636.994566,51 635.991834,51 Z M640.006029,51 L640.006029,50 C641.008369,50 641.008369,50 642.004887,50 L642.004887,51 C641.008369,51 641.008369,51 640.006029,51 Z M643.999087,51 L643.999087,50 C645.004352,50 645.004352,50 646.003551,50 L646.003551,51 C645.004352,51 645.004352,51 643.999087,51 Z M647.999567,51 L647.999567,50 C649.004581,50 649.004581,50 650.003306,50 L650.003306,51 C649.004581,51 649.004581,51 647.999567,51 Z M652.003167,51 L652.003167,50 C653.004801,50 653.004801,50 653.999944,50 L653.999944,51 C653.004801,51 653.004801,51 652.003167,51 Z M656.005499,51 L656.005499,50 C657.010895,50 657.010895,50 658.009487,50 L658.009487,51 C657.010895,51 657.010895,51 656.005499,51 Z M660.002091,51 L660.002091,50 C661.007341,50 661.007341,50 662.005504,50 L662.005504,51 C661.007341,51 661.007341,51 660.002091,51 Z M664.002726,51 L664.002726,50 C665.00849,50 665.00849,50 666.006847,50 L666.006847,51 C665.00849,51 665.00849,51 664.002726,51 Z M668.001816,51 L668.001816,50 C669.003726,50 669.003726,50 669.997949,50 L669.997949,51 C669.003726,51 669.003726,51 668.001816,51 Z M671.99365,51 L671.99365,50 C672.995862,50 672.995862,50 673.990013,50 L673.990013,51 C672.995862,51 672.995862,51 671.99365,51 Z M675.999129,51 L675.999129,50 C677.004207,50 677.004207,50 678.000767,50 L678.000767,51 C677.004207,51 677.004207,51 675.999129,51 Z M679.997237,51 L679.997237,50 C681.002954,50 681.002954,50 681.999686,50 L681.999686,51 C681.002954,51 681.002954,51 679.997237,51 Z M684.006164,51 L684.006164,50 C685.009396,50 685.009396,50 686.003185,50 L686.003185,51 C685.009396,51 685.009396,51 684.006164,51 Z M688.004121,51 L688.004121,50 C689.008099,50 689.008099,50 690.002056,50 L690.002056,51 C689.008099,51 689.008099,51 688.004121,51 Z M691.99441,51 L691.99441,50 C693.000407,50 693.000407,50 693.995704,50 L693.995704,51 C693.000407,51 693.000407,51 691.99441,51 Z M696.001724,51 L696.001724,50 C697.008656,50 697.008656,50 698.004141,50 L698.004141,51 C697.008656,51 697.008656,51 696.001724,51 Z M700.001086,51 L700.001086,50 C701.006428,50 701.006428,50 701.99953,50 L701.99953,51 C701.006428,51 701.006428,51 700.001086,51 Z M704.000939,51 L704.000939,50 C705.007486,50 705.007486,50 706.000803,50 L706.000803,51 C705.007486,51 705.007486,51 704.000939,51 Z M707.995594,51 L707.995594,50 C709.002506,50 709.002506,50 709.995056,50 L709.995056,51 C709.002506,51 709.002506,51 707.995594,51 Z M711.996791,51 L711.996791,50 C713.005284,50 713.005284,50 713.998029,50 L713.998029,51 C713.005284,51 713.005284,51 711.996791,51 Z M716.000641,51 L716.000641,50 C717.010042,50 717.010042,50 718.00205,50 L718.00205,51 C717.010042,51 717.010042,51 716.000641,51 Z M719.998381,51 L719.998381,50 C721.007937,50 721.007937,50 721.99811,50 L721.99811,51 C721.007937,51 721.007937,51 719.998381,51 Z M724.001142,51 L724.001142,50 C725.011736,50 725.011736,50 726.000403,50 L726.000403,51 C725.011736,51 725.011736,51 724.001142,51 Z M727.999795,51 L727.999795,50 C729.012943,50 729.012943,50 730.000794,50 L730.000794,51 C729.012943,51 729.012943,51 727.999795,51 Z M732.002593,51 L732.002593,50 C733.017233,50 733.017233,50 734.002095,50 L734.002095,51 C733.017233,51 733.017233,51 732.002593,51 Z M736.001053,51 L736.001053,50 C737.019046,50 737.019046,50 738.00077,50 L738.00077,51 C737.019046,51 737.019046,51 736.001053,51 Z M739.997952,51 L739.997952,50 C741.020962,50 741.020962,50 741.997612,50 L741.997612,51 C741.020962,51 741.020962,51 739.997952,51 Z M743.999404,51 L743.999404,50 C745.031644,50 745.031644,50 745.999568,50 L745.999568,51 C745.031644,51 745.031644,51 743.999404,51 Z M747.998623,51 L747.998623,50 C749.051121,50 749.051121,50 749.998672,50 L749.998672,51 C749.051121,51 749.051121,51 747.998623,51 Z M752.00024,51 L752.00024,50 C752.529154,50 752.529154,50 753,50 C753.324703,50 753.648783,49.9907097 753.972371,49.9722077 L754.029456,50.970577 C753.686892,50.990164 753.343776,51 753,51 C752.529154,51 752.529154,51 752.00024,51 Z M756.074534,50.7374865 L755.906274,49.751744 C756.54007,49.6435585 757.173327,49.5002586 757.807295,49.3222543 L758.07762,50.2850235 C757.410414,50.4723602 756.743114,50.6233636 756.074534,50.7374865 Z M760.051852,49.6255018 L759.691086,48.6928456 C760.287209,48.4622558 760.885411,48.2014458 761.487168,47.9104546 L761.922509,48.8107202 C761.296746,49.1133203 760.673708,49.384958 760.051852,49.6255018 Z M763.713551,47.8651928 L763.217458,46.9969234 C763.7728,46.6796241 764.332664,46.3371084 764.898919,45.9688752 L765.444082,46.8072058 C764.862081,47.1856779 764.285894,47.5381795 763.713551,47.8651928 Z M767.138025,45.6449885 L766.553364,44.833711 C767.073528,44.4588459 767.600889,44.0625146 768.13817,43.6432681 L768.753355,44.4316512 C768.206281,44.8585393 767.668775,45.2624944 767.138025,45.6449885 Z M770.30447,43.1818579 L769.665877,42.4123134 C770.158491,42.0035262 770.661852,41.5750171 771.180853,41.1231756 L771.837476,41.8773947 C771.312701,42.3342635 770.803357,42.7678655 770.30447,43.1818579 Z M773.348345,40.5370046 L772.678441,39.7945569 C773.147674,39.3711719 773.633771,38.9265707 774.150582,38.4486066 L774.829558,39.1827668 C774.309875,39.6633876 773.820786,40.110725 773.348345,40.5370046 Z M776.301121,37.8105672 L775.616715,37.0814663 C776.033189,36.6905226 776.433046,36.3136949 777.071253,35.7111993 L777.757723,36.4383578 C777.118878,37.0414558 776.718455,37.4188165 776.301121,37.8105672 Z M779.219527,35.0594549 L778.534161,34.3312561 C779.074293,33.8228949 779.544504,33.3824157 779.995692,32.9626247 L780.676866,33.6947457 C780.227227,34.1130953 779.758364,34.5523119 779.219527,35.0594549 Z M782.151748,32.3352376 L781.47794,31.5963316 C781.992618,31.1269967 782.487355,30.6817795 782.970395,30.2537449 L783.633603,31.0021803 C783.154263,31.4269359 782.663038,31.8689929 782.151748,32.3352376 Z M785.104795,29.7213679 L784.455365,28.9609467 C784.979182,28.5135863 785.492839,28.0846164 785.99978,27.6716527 L786.631362,28.4469619 C786.130586,28.8549036 785.62286,29.2789196 785.104795,29.7213679 Z M788.19607,27.2076775 L787.586704,26.4147881 C788.13123,25.9962992 788.67018,25.5957174 789.205532,25.2120747 L789.788024,26.0249107 C789.261923,26.4019239 788.731915,26.7958601 788.19607,27.2076775 Z M791.427566,24.8968836 L790.877458,24.0617904 C791.450716,23.6841629 792.021353,23.3258693 792.59072,22.9865778 L793.10263,23.8456173 C792.546386,24.177088 791.988467,24.5273964 791.427566,24.8968836 Z M794.84512,22.8664486 L794.378535,21.9819719 C794.985463,21.661802 795.592069,21.3632822 796.199367,21.0864407 L796.614159,21.9963569 C796.0246,22.2651122 795.435247,22.5551414 794.84512,22.8664486 Z M798.420338,21.2402445 L798.06413,20.3058376 C798.703941,20.061934 799.345312,19.8421348 799.989026,19.6466864 L800.279555,20.6035524 C799.658204,20.7922111 799.038725,21.0045075 798.420338,21.2402445 Z M802.201644,20.0971353 L801.983649,19.1211855 C802.64881,18.9726103 803.316995,18.8499703 803.988795,18.753624 L804.130758,19.743496 C803.484612,19.8361631 802.841785,19.9541488 802.201644,20.0971353 Z M806.112858,19.5397084 L806.050526,18.5416529 C806.361796,18.522213 806.673906,18.5083736 806.986902,18.5001716 C807.340142,18.490915 807.698492,18.481981 808.061953,18.4733694 L808.085639,19.4730889 C807.723009,19.4816807 807.365495,19.4905939 807.013098,19.4998284 C806.712165,19.5077143 806.412102,19.5210195 806.112858,19.5397084 Z M810.081814,19.4300459 L810.062283,18.4302367 C810.714881,18.4174884 811.382418,18.4056824 812.064897,18.3948185 L812.080814,19.3946918 C811.399526,19.4055367 810.733193,19.4173215 810.081814,19.4300459 Z M814.079439,19.3661184 L814.0667,18.3661995 C814.720767,18.3578665 815.387478,18.3503306 816.066833,18.3435915 L816.076753,19.3435423 C815.398329,19.3502721 814.732557,19.3577975 814.079439,19.3661184 Z M818.076587,19.3262787 L818.069197,18.326306 C818.725395,18.3214568 819.392587,18.3173003 820.070775,18.3138366 L820.075882,19.3138236 C819.398449,19.3172834 818.732017,19.3214351 818.076587,19.3262787 Z M822.072696,19.3057254 L822.069661,18.30573 C822.726721,18.3037353 823.393485,18.3023519 824.069952,18.3015798 L824.071094,19.3015791 C823.395253,19.3023505 822.72912,19.3037326 822.072696,19.3057254 Z M826.071578,19.3010621 L826.072179,18.3010623 C826.730114,18.3014573 827.396737,18.3023996 828.072049,18.3038892 L828.069843,19.3038868 C827.395063,19.3023984 826.728975,19.3014568 826.071578,19.3010621 Z M830.069899,19.3098057 L830.073593,18.3098125 C830.732808,18.312248 831.399903,18.3151797 832.074877,18.3186076 L832.069798,19.3185947 C831.395283,19.3151691 830.72865,19.3122394 830.069899,19.3098057 Z M834.070063,19.3300598 L834.076433,18.33008 C834.736128,18.3342825 835.403018,18.3389381 836.077103,18.3440468 L836.069524,19.3440181 C835.39584,19.3389124 834.729353,19.3342596 834.070063,19.3300598 Z M838.06995,19.3603255 L838.078663,18.3603634 C838.738699,18.3661146 839.405354,18.3722825 840.078628,18.3788673 L840.068848,19.3788195 C839.395928,19.3722382 838.729629,19.3660735 838.06995,19.3603255 Z M842.068401,19.3993916 L842.079187,18.3994497 C842.739676,18.4065743 843.406295,18.4140849 844.079046,18.4219817 L844.067309,19.4219128 C843.394874,19.4140198 842.728571,19.4065127 842.068401,19.3993916 Z M846.063967,19.446256 L846.076604,18.4463359 C846.737759,18.4546915 847.404629,18.4634071 848.077215,18.4724825 L848.063723,19.4723915 C847.391421,19.4633199 846.724836,19.454608 846.063967,19.446256 Z M850.063184,19.5001906 L850.077489,18.500293 C850.738659,18.509752 851.405173,18.5195475 852.07703,18.5296794 L852.061951,19.5295657 C851.390351,19.5194376 850.724095,19.509646 850.063184,19.5001906 Z M854.061718,19.5604674 L854.077535,18.5605925 C854.739354,18.5710618 855.406199,18.5818477 856.078071,18.59295 L856.061549,19.5928135 C855.389911,19.581715 854.723301,19.570933 854.061718,19.5604674 Z M858.061874,19.6265476 L858.079071,18.6266955 C858.741131,18.6380824 859.407931,18.6497678 860.079472,18.6617517 L860.061629,19.6615925 C859.390304,19.6496125 858.723719,19.6379309 858.061874,19.6265476 Z M862.06295,19.6979312 L862.081412,18.6981017 C862.743559,18.7103283 863.41019,18.7228372 864.081302,18.7356284 L864.062246,19.7354468 C863.391331,19.7226594 862.724899,19.7101542 862.06295,19.6979312 Z M866.060411,19.7741051 L866.080038,18.7742978 C866.742402,18.7873003 867.409019,18.8005707 868.079891,18.8141088 L868.059715,19.8139053 C867.389026,19.8003708 866.722591,19.7871041 866.060411,19.7741051 Z M870.055948,19.8547198 L870.076652,18.8549341 C870.739228,18.868655 871.405852,18.8826306 872.076524,18.8968611 L872.05531,19.896636 C871.384808,19.8824092 870.718354,19.8684371 870.055948,19.8547198 Z" fill="url(#linearGradient-2)" fill-rule="nonzero"></path>
                <path id="箭头" d="M872.499757,83.0913852 C872.005964,83.0908591 871.514298,83.0902861 871.024759,83.0896661 L871.026025,82.0896669 C871.515306,82.0902866 872.006713,82.0908593 872.500245,82.0913851 L872.502198,78.0916578 L881.5,82.5960504 L872.497804,87.0916567 L872.499757,83.0913852 Z M753,51 L753,50 C753.687364,50 754.371188,50.0393208 755.052428,50.1172947 L754.938712,51.1108079 C754.295073,51.0371378 753.649213,51 753,51 Z M756.863121,51.4406046 L757.085577,50.4656619 C757.744272,50.6159587 758.401528,50.80223 759.058694,51.0240127 L758.73893,51.9715097 C758.113328,51.7603796 757.488518,51.5833037 756.863121,51.4406046 Z M760.604144,52.6999558 L761.009107,51.7856225 C761.617052,52.054884 762.226387,52.3541762 762.838857,52.6835348 L762.36524,53.5642656 C761.774823,53.246766 761.188342,52.9586998 760.604144,52.6999558 Z M764.049569,54.5424356 L764.578145,53.6935499 C765.136752,54.0413782 765.699727,54.413939 766.269344,54.812 L765.69653,55.6316853 C765.141092,55.2435325 764.592827,54.8807067 764.049569,54.5424356 Z M767.319965,56.8218201 L767.928044,56.0279438 C768.445969,56.4246546 768.971599,56.8425318 769.508365,57.2836471 L768.873454,58.0562319 C768.345286,57.6221829 767.828569,57.2113917 767.319965,56.8218201 Z M770.368547,59.3197634 L771.023613,58.5641915 C771.510637,58.9864321 772.009838,59.4288021 772.528004,59.8967274 L771.857793,60.6388981 C771.344463,60.17534 770.850281,59.7374172 770.368547,59.3197634 Z M773.334576,61.9932509 L774.015433,61.260835 C774.473867,61.6869978 774.952089,62.1361673 775.476419,62.6325193 L774.788953,63.3587359 C774.266691,62.864341 773.790629,62.4172 773.334576,61.9932509 Z M776.243228,64.7423156 L776.93374,64.0189955 C777.033216,64.113959 778.072542,65.1068499 778.379475,65.39962 L777.689259,66.1232238 C777.381994,65.830136 776.342454,64.8370412 776.243228,64.7423156 Z M779.150154,67.5109528 L779.836836,66.7839953 C780.352919,67.271486 780.831687,67.7200664 781.29381,68.1486039 L780.613851,68.8818536 C780.149329,68.4510923 779.668354,68.0004431 779.150154,67.5109528 Z M782.102163,70.2442216 L782.772042,69.5017515 C783.281555,69.9614502 783.776381,70.4003498 784.262024,70.8228424 L783.605672,71.5772978 C783.115335,71.1507202 782.616019,70.7078384 782.102163,70.2442216 Z M785.103008,72.8520405 L785.742487,72.0832316 C786.264108,72.5171042 786.777971,72.9332337 787.286731,73.3332832 L786.668613,74.1193689 C786.152488,73.7135279 785.631521,73.2916459 785.103008,72.8520405 Z M788.28304,75.3476371 L788.875039,74.541699 C789.417912,74.9404645 789.956804,75.3212804 790.493344,75.6848135 L789.932421,76.5126814 C789.385194,76.1419075 788.835959,75.7537823 788.28304,75.3476371 Z M791.641602,77.6178378 L792.165566,76.7660979 C792.73548,77.1166919 793.304041,77.4478594 793.872396,77.7597913 L793.391263,78.6364391 C792.808215,78.3164434 792.225391,77.9769674 791.641602,77.6178378 Z M795.192516,79.5622117 L795.624428,78.6602956 C796.223806,78.9473271 796.823933,79.2130042 797.425691,79.4572522 L797.049599,80.3838348 C796.428775,80.1318479 795.810047,79.8579362 795.192516,79.5622117 Z M798.973589,81.0918538 L799.287084,80.1422638 C799.912961,80.3488887 800.541361,80.5324601 801.17299,80.6927454 L800.927022,81.6620232 C800.272488,81.4959258 799.621574,81.3057774 798.973589,81.0918538 Z M802.944757,82.0953825 L803.11811,81.1105228 C803.762092,81.2238753 804.409995,81.313278 805.062383,81.3784141 L804.963034,82.3734668 C804.285776,82.3058477 803.61319,82.2130389 802.944757,82.0953825 Z M807.015035,82.5005414 L807.040348,81.5008619 C807.690765,81.5173313 808.356694,81.533459 809.038136,81.549245 L809.014977,82.5489768 C808.332825,82.5331744 807.666178,82.5170293 807.015035,82.5005414 Z M811.015305,82.5933885 L811.036579,81.5936148 C811.690104,81.6075212 812.356729,81.6211389 813.036452,81.6344678 L813.016846,82.6342756 C812.336572,82.6209359 811.669392,82.6073068 811.015305,82.5933885 Z M815.015644,82.6719561 L815.033762,81.6721202 C815.688599,81.6839864 816.35474,81.6956034 817.032182,81.7069711 L817.015404,82.7068304 C816.337519,82.6954552 815.670932,82.6838304 815.015644,82.6719561 Z M819.018361,82.7392032 L819.033923,81.7393243 C819.690143,81.7495376 820.356313,81.7595316 821.032434,81.7693061 L821.017979,82.7692016 C820.341492,82.7594218 819.674952,82.7494223 819.018361,82.7392032 Z M823.01574,82.7970556 L823.029181,81.7971459 C823.686867,81.805987 824.353452,81.8146319 825.028937,81.8230804 L825.01643,82.8230022 C824.340636,82.8145498 823.67374,82.8059009 823.01574,82.7970556 Z M827.018204,82.8471619 L827.029845,81.8472297 C827.68828,81.8548951 828.354752,81.8623832 829.029261,81.8696941 L829.018422,82.8696354 C828.343648,82.8623216 827.676908,82.8548305 827.018204,82.8471619 Z M831.018578,82.8905577 L831.028668,81.8906086 C831.688099,81.8972626 832.354865,81.9037548 833.028968,81.9100852 L833.019577,82.9100411 C832.345243,82.9037086 831.678243,82.8972141 831.018578,82.8905577 Z M835.020369,82.9281671 L835.029103,81.9282053 C835.688998,81.9339694 836.355633,81.9395849 837.029007,81.9450517 L837.020889,82.9450187 C836.347311,82.9395503 835.68047,82.9339331 835.020369,82.9281671 Z M839.021095,82.9606709 L839.028633,81.9606993 C839.688744,81.9656751 840.355086,81.9705134 841.027656,81.9752143 L841.020667,82.9751899 C840.347914,82.9704877 839.68139,82.9656481 839.021095,82.9606709 Z M843.018105,82.9886284 L843.024576,81.9886494 C843.6856,81.9929269 844.352429,81.9970763 845.025063,82.0010977 L845.019085,83.0010799 C844.346287,82.9970575 843.679294,82.992907 843.018105,82.9886284 Z M847.021086,83.0125765 L847.026597,82.0125917 C847.687737,82.0162349 848.354299,82.0197585 849.026283,82.0231625 L849.021218,83.0231497 C848.349086,83.019745 847.682375,83.0162206 847.021086,83.0125765 Z M851.020537,83.0328502 L851.025179,82.032861 C851.686712,82.0359316 852.353338,82.0388898 853.025055,82.0417357 L853.020819,83.0417268 C852.348967,83.0388803 851.682206,83.0359214 851.020537,83.0328502 Z M855.022486,83.0498169 L855.026335,82.0498243 C855.688107,82.0523718 856.354677,82.0548135 857.026045,82.0571493 L857.022565,83.0571432 C856.351075,83.054807 855.684382,83.0523649 855.022486,83.0498169 Z M859.02074,83.0637385 L859.023865,82.0637434 C859.685915,82.065812 860.352503,82.0677805 861.023627,82.069649 L861.020843,83.0696451 C860.349606,83.0677763 859.682905,83.0658075 859.02074,83.0637385 Z M863.020187,83.0748823 L863.022644,82.0748853 C863.684929,82.0765126 864.351516,82.078045 865.022405,82.0794824 L865.020263,83.0794801 C864.349269,83.0780424 863.682577,83.0765098 863.020187,83.0748823 Z M867.022373,83.0834645 L867.024213,82.0834662 C867.686697,82.0846848 868.353271,82.0858132 869.023937,82.0868514 L869.022389,83.0868502 C868.351626,83.0858119 867.684955,83.0846833 867.022373,83.0834645 Z" fill="url(#linearGradient-3)" fill-rule="nonzero"></path>
                <g id="1" class="item" data-type="SSPA" data-code="standard" transform="translate(0.000000, 30.000000)">
                    <g id="矩形1">
                        <use fill="black" fill-opacity="1" filter="url(#filter-5)" xlink:href="#path-4"></use>
                        <use fill="#FFFFFF" fill-rule="evenodd" xlink:href="#path-4"></use>
                    </g>
                    <g id="步骤1" transform="translate(15.000000, 9.000000)">
                        <g id="椭圆形">
                            <use fill="black" fill-opacity="1" filter="url(#filter-8)" xlink:href="#path-7"></use>
                            <use fill="url(#linearGradient-6)" fill-rule="evenodd" xlink:href="#path-7"></use>
                        </g>
                        <text id="1" font-family="PingFangSC-Semibold, PingFang SC" font-size="14" font-weight="500" fill="#FFFFFF">
                            <tspan x="8.13" y="16">1</tspan>
                        </text>
                    </g>
                    <path d="M56.554,17.265 L56.385,17.941 C56.71,19.462 57.126,20.775 57.646,21.867 C58.153,20.554 58.426,19.02 58.478,17.265 L56.554,17.265 Z M57.217,22.803 C56.71,21.802 56.281,20.658 55.93,19.358 C55.696,19.956 55.436,20.489 55.163,20.957 L54.578,20.242 C55.345,18.786 55.865,16.823 56.125,14.353 L57.035,14.509 C56.957,15.172 56.853,15.796 56.749,16.368 L60.181,16.368 L60.181,17.265 L59.336,17.265 C59.271,19.436 58.868,21.295 58.14,22.829 C58.816,23.999 59.609,24.896 60.545,25.533 L60.038,26.3 C59.128,25.65 58.348,24.766 57.698,23.674 C57.074,24.714 56.268,25.585 55.293,26.287 L54.812,25.507 C55.826,24.805 56.619,23.908 57.217,22.803 Z M51.055,20.424 L51.926,20.528 C51.835,20.775 51.744,21.009 51.666,21.243 L54.383,21.243 L54.383,22.01 C54.097,22.868 53.616,23.609 52.94,24.233 C53.564,24.519 54.162,24.805 54.734,25.117 L54.227,25.845 C53.655,25.507 52.992,25.156 52.225,24.818 C51.367,25.416 50.288,25.897 48.988,26.261 L48.546,25.481 C49.612,25.195 50.535,24.844 51.289,24.415 C50.717,24.168 50.119,23.921 49.482,23.687 C49.82,23.115 50.119,22.582 50.379,22.062 L48.845,22.062 L48.845,21.243 L50.743,21.243 C50.86,20.957 50.964,20.684 51.055,20.424 Z M52.082,23.869 C52.732,23.349 53.226,22.738 53.538,22.062 L51.302,22.062 C51.094,22.504 50.86,22.92 50.6,23.31 C51.12,23.492 51.614,23.674 52.082,23.869 Z M49.872,14.626 C50.184,15.133 50.444,15.679 50.678,16.251 L50.002,16.563 C49.729,15.926 49.443,15.367 49.131,14.873 L49.872,14.626 Z M53.824,14.587 L54.5,14.899 C54.24,15.471 53.915,16.03 53.499,16.576 L52.836,16.238 C53.252,15.679 53.59,15.133 53.824,14.587 Z M48.871,16.875 L51.406,16.875 L51.406,14.392 L52.277,14.392 L52.277,16.875 L54.643,16.875 L54.643,17.694 L52.277,17.694 L52.277,17.837 C52.979,18.188 53.707,18.591 54.435,19.033 L53.954,19.761 C53.304,19.241 52.745,18.825 52.277,18.513 L52.277,20.203 L51.406,20.203 L51.406,17.733 C50.977,18.76 50.197,19.644 49.079,20.398 L48.624,19.644 C49.625,19.059 50.327,18.409 50.717,17.694 L48.871,17.694 L48.871,16.875 Z M63.132,26.183 L62.027,26.183 L61.832,25.299 C62.17,25.338 62.508,25.364 62.82,25.364 C63.145,25.364 63.314,25.169 63.314,24.805 L63.314,21.62 C62.794,21.815 62.287,21.997 61.78,22.153 L61.546,21.243 C62.144,21.1 62.742,20.918 63.314,20.71 L63.314,17.772 L61.754,17.772 L61.754,16.875 L63.314,16.875 L63.314,14.418 L64.224,14.418 L64.224,16.875 L65.472,16.875 L65.472,17.772 L64.224,17.772 L64.224,20.333 C64.64,20.151 65.043,19.956 65.433,19.748 L65.433,20.671 C65.03,20.879 64.627,21.061 64.224,21.243 L64.224,25.039 C64.224,25.793 63.86,26.183 63.132,26.183 Z M67.019,20.437 C66.863,22.66 66.356,24.61 65.498,26.3 L64.77,25.65 C65.693,23.934 66.161,21.698 66.174,18.968 L66.174,14.899 L73.025,14.899 L73.025,18.058 L70.581,18.058 L70.581,19.592 L73.363,19.592 L73.363,20.437 L70.581,20.437 L70.581,22.036 L72.765,22.036 L72.765,26.3 L71.894,26.3 L71.894,25.663 L68.371,25.663 L68.371,26.3 L67.5,26.3 L67.5,22.036 L69.671,22.036 L69.671,20.437 L67.019,20.437 Z M69.671,18.058 L67.084,18.058 L67.084,18.968 C67.084,19.176 67.071,19.384 67.071,19.592 L69.671,19.592 L69.671,18.058 Z M68.371,24.831 L71.894,24.831 L71.894,22.868 L68.371,22.868 L68.371,24.831 Z M72.115,15.77 L67.084,15.77 L67.084,17.213 L72.115,17.213 L72.115,15.77 Z M76.483,14.418 L77.406,14.418 L77.406,16.875 L78.914,16.875 L78.914,17.772 L77.406,17.772 L77.406,18.773 C78.043,19.423 78.68,20.151 79.317,20.944 L78.784,21.737 C78.251,20.918 77.796,20.268 77.406,19.774 L77.406,26.287 L76.483,26.287 L76.483,19.813 C76.067,21.035 75.534,22.153 74.884,23.167 L74.481,22.153 C75.417,20.879 76.08,19.41 76.483,17.772 L74.897,17.772 L74.897,16.875 L76.483,16.875 L76.483,14.418 Z M80.318,20.294 L81.176,20.489 C80.76,22.309 80.149,23.869 79.369,25.195 L78.563,24.675 C79.369,23.362 79.954,21.906 80.318,20.294 Z M85.024,20.229 C85.57,21.698 86.038,23.271 86.428,24.935 L85.583,25.312 C85.154,23.505 84.686,21.906 84.179,20.502 L85.024,20.229 Z M82.112,26.157 L80.786,26.157 L80.604,25.286 C81.02,25.312 81.41,25.338 81.787,25.338 C82.138,25.338 82.32,25.143 82.32,24.766 L82.32,19.215 L79.148,19.215 L79.148,18.318 L86.441,18.318 L86.441,19.215 L83.256,19.215 L83.256,25 C83.256,25.767 82.866,26.157 82.112,26.157 Z M79.837,15.159 L85.765,15.159 L85.765,16.043 L79.837,16.043 L79.837,15.159 Z M88.443,14.808 C89.327,15.939 90.016,16.927 90.484,17.772 L89.704,18.305 C89.21,17.408 88.521,16.407 87.65,15.302 L88.443,14.808 Z M89.704,20.463 L90.549,20.801 C89.951,22.725 89.275,24.519 88.547,26.209 L87.663,25.832 C88.443,24.077 89.132,22.283 89.704,20.463 Z M92.785,20.138 L92.785,21.919 L95.476,21.919 L95.476,20.138 L92.785,20.138 Z M92.785,22.79 L92.785,24.727 L95.476,24.727 L95.476,22.79 L92.785,22.79 Z M92.785,25.598 L92.785,26.313 L91.875,26.313 L91.875,18.643 C91.498,19.254 91.082,19.839 90.64,20.398 L90.328,19.41 C91.459,17.876 92.252,16.186 92.72,14.353 L93.617,14.535 C93.422,15.25 93.188,15.939 92.915,16.602 L95.684,16.602 C95.476,15.874 95.229,15.185 94.93,14.522 L95.827,14.262 C96.139,15.068 96.373,15.809 96.542,16.472 L96.191,16.602 L99.116,16.602 L99.116,17.486 L96.373,17.486 L96.373,19.267 L98.843,19.267 L98.843,20.138 L96.373,20.138 L96.373,21.919 L98.869,21.919 L98.869,22.79 L96.373,22.79 L96.373,24.727 L99.389,24.727 L99.389,25.598 L92.785,25.598 Z M95.476,17.486 L92.785,17.486 L92.785,19.267 L95.476,19.267 L95.476,17.486 Z" id="数据标准" fill-opacity="0.8" fill="#333748" fill-rule="nonzero"></path>
                </g>
                <g id="2" class="item" data-type="HREF" data-code="dataSource" transform="translate(218.000000, 30.000000)">
                    <g id="矩形1">
                        <use fill="black" fill-opacity="1" filter="url(#filter-10)" xlink:href="#path-9"></use>
                        <use fill="#FFFFFF" fill-rule="evenodd" xlink:href="#path-9"></use>
                    </g>
                    <g id="步骤1" transform="translate(15.000000, 9.000000)">
                        <g id="椭圆形">
                            <use fill="black" fill-opacity="1" filter="url(#filter-12)" xlink:href="#path-11"></use>
                            <use fill="url(#linearGradient-6)" fill-rule="evenodd" xlink:href="#path-11"></use>
                        </g>
                        <text id="2" font-family="PingFangSC-Semibold, PingFang SC" font-size="14" font-weight="500" fill="#FFFFFF">
                            <tspan x="6.8" y="16">2</tspan>
                        </text>
                    </g>
                    <path d="M56.554,17.265 L56.385,17.941 C56.71,19.462 57.126,20.775 57.646,21.867 C58.153,20.554 58.426,19.02 58.478,17.265 L56.554,17.265 Z M57.217,22.803 C56.71,21.802 56.281,20.658 55.93,19.358 C55.696,19.956 55.436,20.489 55.163,20.957 L54.578,20.242 C55.345,18.786 55.865,16.823 56.125,14.353 L57.035,14.509 C56.957,15.172 56.853,15.796 56.749,16.368 L60.181,16.368 L60.181,17.265 L59.336,17.265 C59.271,19.436 58.868,21.295 58.14,22.829 C58.816,23.999 59.609,24.896 60.545,25.533 L60.038,26.3 C59.128,25.65 58.348,24.766 57.698,23.674 C57.074,24.714 56.268,25.585 55.293,26.287 L54.812,25.507 C55.826,24.805 56.619,23.908 57.217,22.803 Z M51.055,20.424 L51.926,20.528 C51.835,20.775 51.744,21.009 51.666,21.243 L54.383,21.243 L54.383,22.01 C54.097,22.868 53.616,23.609 52.94,24.233 C53.564,24.519 54.162,24.805 54.734,25.117 L54.227,25.845 C53.655,25.507 52.992,25.156 52.225,24.818 C51.367,25.416 50.288,25.897 48.988,26.261 L48.546,25.481 C49.612,25.195 50.535,24.844 51.289,24.415 C50.717,24.168 50.119,23.921 49.482,23.687 C49.82,23.115 50.119,22.582 50.379,22.062 L48.845,22.062 L48.845,21.243 L50.743,21.243 C50.86,20.957 50.964,20.684 51.055,20.424 Z M52.082,23.869 C52.732,23.349 53.226,22.738 53.538,22.062 L51.302,22.062 C51.094,22.504 50.86,22.92 50.6,23.31 C51.12,23.492 51.614,23.674 52.082,23.869 Z M49.872,14.626 C50.184,15.133 50.444,15.679 50.678,16.251 L50.002,16.563 C49.729,15.926 49.443,15.367 49.131,14.873 L49.872,14.626 Z M53.824,14.587 L54.5,14.899 C54.24,15.471 53.915,16.03 53.499,16.576 L52.836,16.238 C53.252,15.679 53.59,15.133 53.824,14.587 Z M48.871,16.875 L51.406,16.875 L51.406,14.392 L52.277,14.392 L52.277,16.875 L54.643,16.875 L54.643,17.694 L52.277,17.694 L52.277,17.837 C52.979,18.188 53.707,18.591 54.435,19.033 L53.954,19.761 C53.304,19.241 52.745,18.825 52.277,18.513 L52.277,20.203 L51.406,20.203 L51.406,17.733 C50.977,18.76 50.197,19.644 49.079,20.398 L48.624,19.644 C49.625,19.059 50.327,18.409 50.717,17.694 L48.871,17.694 L48.871,16.875 Z M63.132,26.183 L62.027,26.183 L61.832,25.299 C62.17,25.338 62.508,25.364 62.82,25.364 C63.145,25.364 63.314,25.169 63.314,24.805 L63.314,21.62 C62.794,21.815 62.287,21.997 61.78,22.153 L61.546,21.243 C62.144,21.1 62.742,20.918 63.314,20.71 L63.314,17.772 L61.754,17.772 L61.754,16.875 L63.314,16.875 L63.314,14.418 L64.224,14.418 L64.224,16.875 L65.472,16.875 L65.472,17.772 L64.224,17.772 L64.224,20.333 C64.64,20.151 65.043,19.956 65.433,19.748 L65.433,20.671 C65.03,20.879 64.627,21.061 64.224,21.243 L64.224,25.039 C64.224,25.793 63.86,26.183 63.132,26.183 Z M67.019,20.437 C66.863,22.66 66.356,24.61 65.498,26.3 L64.77,25.65 C65.693,23.934 66.161,21.698 66.174,18.968 L66.174,14.899 L73.025,14.899 L73.025,18.058 L70.581,18.058 L70.581,19.592 L73.363,19.592 L73.363,20.437 L70.581,20.437 L70.581,22.036 L72.765,22.036 L72.765,26.3 L71.894,26.3 L71.894,25.663 L68.371,25.663 L68.371,26.3 L67.5,26.3 L67.5,22.036 L69.671,22.036 L69.671,20.437 L67.019,20.437 Z M69.671,18.058 L67.084,18.058 L67.084,18.968 C67.084,19.176 67.071,19.384 67.071,19.592 L69.671,19.592 L69.671,18.058 Z M68.371,24.831 L71.894,24.831 L71.894,22.868 L68.371,22.868 L68.371,24.831 Z M72.115,15.77 L67.084,15.77 L67.084,17.213 L72.115,17.213 L72.115,15.77 Z M78.901,23.141 L74.897,23.141 L74.897,22.296 L80.071,22.296 L80.071,21.62 L81.007,21.62 L81.007,22.296 L86.103,22.296 L86.103,23.141 L82.164,23.141 C83.048,23.973 84.413,24.636 86.246,25.13 L85.843,25.962 C83.685,25.234 82.164,24.298 81.254,23.141 L81.007,23.141 L81.007,26.313 L80.071,26.313 L80.071,23.141 L79.824,23.141 C79.005,24.246 77.484,25.208 75.261,26.014 L74.767,25.208 C76.769,24.597 78.147,23.908 78.901,23.141 Z M76.171,17.616 C75.833,18.006 75.469,18.37 75.079,18.734 L74.546,18.006 C75.703,16.966 76.561,15.744 77.133,14.34 L78.004,14.561 C77.874,14.912 77.718,15.25 77.562,15.575 L80.37,15.575 C80.188,15.172 80.006,14.795 79.798,14.457 L80.76,14.301 C80.942,14.678 81.111,15.107 81.28,15.575 L85.479,15.575 L85.479,16.355 L81.345,16.355 L81.345,17.239 L84.998,17.239 L84.998,17.967 L81.345,17.967 L81.345,18.825 L84.998,18.825 L84.998,19.553 L81.345,19.553 L81.345,20.476 L85.726,20.476 L85.726,21.269 L76.171,21.269 L76.171,17.616 Z M80.422,20.476 L80.422,19.553 L77.042,19.553 L77.042,20.476 L80.422,20.476 Z M80.422,18.825 L80.422,17.967 L77.042,17.967 L77.042,18.825 L80.422,18.825 Z M80.422,17.239 L80.422,16.355 L77.107,16.355 L77.042,16.459 L77.042,17.239 L80.422,17.239 Z M96.672,14.34 C97.296,14.808 97.829,15.289 98.271,15.77 L97.673,16.368 L99.259,16.368 L99.259,17.265 L95.255,17.265 C95.346,18.877 95.515,20.151 95.749,21.087 C95.827,21.412 95.918,21.711 96.009,21.997 C96.659,20.957 97.179,19.735 97.582,18.344 L98.427,18.708 C97.907,20.424 97.231,21.88 96.399,23.05 C96.581,23.466 96.776,23.83 96.984,24.129 C97.413,24.753 97.764,25.065 98.024,25.065 C98.258,25.052 98.479,24.376 98.674,23.037 L99.519,23.505 C99.207,25.234 98.765,26.105 98.18,26.105 C97.634,26.105 97.049,25.715 96.425,24.935 C96.191,24.623 95.97,24.259 95.775,23.856 C94.865,24.922 93.799,25.715 92.577,26.261 L92.057,25.481 C93.357,24.896 94.462,24.038 95.359,22.907 C95.177,22.426 95.008,21.906 94.865,21.347 C94.579,20.255 94.397,18.89 94.293,17.265 L89.834,17.265 L89.834,19.423 L93.019,19.423 C92.993,21.62 92.889,23.037 92.72,23.674 C92.551,24.233 92.148,24.519 91.498,24.545 C91.186,24.545 90.809,24.519 90.393,24.493 L90.107,23.648 C90.614,23.674 91.043,23.687 91.394,23.687 C91.68,23.674 91.862,23.479 91.94,23.115 C92.018,22.673 92.057,21.737 92.083,20.307 L89.834,20.307 L89.834,20.697 C89.782,23.024 89.262,24.896 88.3,26.3 L87.585,25.663 C88.417,24.467 88.846,22.816 88.885,20.697 L88.885,16.368 L94.254,16.368 C94.228,15.718 94.215,15.055 94.215,14.353 L95.177,14.353 C95.177,15.081 95.19,15.744 95.216,16.368 L97.647,16.368 C97.257,15.9 96.737,15.419 96.074,14.912 L96.672,14.34 Z" id="数据集成" fill-opacity="0.8" fill="#333748" fill-rule="nonzero"></path>
                </g>
                <g id="3" class="item" data-type="SSPA" data-code="ide" transform="translate(436.000000, 30.000000)">
                    <g id="矩形1">
                        <use fill="black" fill-opacity="1" filter="url(#filter-14)" xlink:href="#path-13"></use>
                        <use fill="#FFFFFF" fill-rule="evenodd" xlink:href="#path-13"></use>
                    </g>
                    <g id="步骤1" transform="translate(15.000000, 9.000000)">
                        <g id="椭圆形">
                            <use fill="black" fill-opacity="1" filter="url(#filter-16)" xlink:href="#path-15"></use>
                            <use fill="url(#linearGradient-6)" fill-rule="evenodd" xlink:href="#path-15"></use>
                        </g>
                        <text id="3" font-family="PingFangSC-Semibold, PingFang SC" font-size="14" font-weight="500" fill="#FFFFFF">
                            <tspan x="6.8" y="16">3</tspan>
                        </text>
                    </g>
                    <path d="M56.554,17.265 L56.385,17.941 C56.71,19.462 57.126,20.775 57.646,21.867 C58.153,20.554 58.426,19.02 58.478,17.265 L56.554,17.265 Z M57.217,22.803 C56.71,21.802 56.281,20.658 55.93,19.358 C55.696,19.956 55.436,20.489 55.163,20.957 L54.578,20.242 C55.345,18.786 55.865,16.823 56.125,14.353 L57.035,14.509 C56.957,15.172 56.853,15.796 56.749,16.368 L60.181,16.368 L60.181,17.265 L59.336,17.265 C59.271,19.436 58.868,21.295 58.14,22.829 C58.816,23.999 59.609,24.896 60.545,25.533 L60.038,26.3 C59.128,25.65 58.348,24.766 57.698,23.674 C57.074,24.714 56.268,25.585 55.293,26.287 L54.812,25.507 C55.826,24.805 56.619,23.908 57.217,22.803 Z M51.055,20.424 L51.926,20.528 C51.835,20.775 51.744,21.009 51.666,21.243 L54.383,21.243 L54.383,22.01 C54.097,22.868 53.616,23.609 52.94,24.233 C53.564,24.519 54.162,24.805 54.734,25.117 L54.227,25.845 C53.655,25.507 52.992,25.156 52.225,24.818 C51.367,25.416 50.288,25.897 48.988,26.261 L48.546,25.481 C49.612,25.195 50.535,24.844 51.289,24.415 C50.717,24.168 50.119,23.921 49.482,23.687 C49.82,23.115 50.119,22.582 50.379,22.062 L48.845,22.062 L48.845,21.243 L50.743,21.243 C50.86,20.957 50.964,20.684 51.055,20.424 Z M52.082,23.869 C52.732,23.349 53.226,22.738 53.538,22.062 L51.302,22.062 C51.094,22.504 50.86,22.92 50.6,23.31 C51.12,23.492 51.614,23.674 52.082,23.869 Z M49.872,14.626 C50.184,15.133 50.444,15.679 50.678,16.251 L50.002,16.563 C49.729,15.926 49.443,15.367 49.131,14.873 L49.872,14.626 Z M53.824,14.587 L54.5,14.899 C54.24,15.471 53.915,16.03 53.499,16.576 L52.836,16.238 C53.252,15.679 53.59,15.133 53.824,14.587 Z M48.871,16.875 L51.406,16.875 L51.406,14.392 L52.277,14.392 L52.277,16.875 L54.643,16.875 L54.643,17.694 L52.277,17.694 L52.277,17.837 C52.979,18.188 53.707,18.591 54.435,19.033 L53.954,19.761 C53.304,19.241 52.745,18.825 52.277,18.513 L52.277,20.203 L51.406,20.203 L51.406,17.733 C50.977,18.76 50.197,19.644 49.079,20.398 L48.624,19.644 C49.625,19.059 50.327,18.409 50.717,17.694 L48.871,17.694 L48.871,16.875 Z M63.132,26.183 L62.027,26.183 L61.832,25.299 C62.17,25.338 62.508,25.364 62.82,25.364 C63.145,25.364 63.314,25.169 63.314,24.805 L63.314,21.62 C62.794,21.815 62.287,21.997 61.78,22.153 L61.546,21.243 C62.144,21.1 62.742,20.918 63.314,20.71 L63.314,17.772 L61.754,17.772 L61.754,16.875 L63.314,16.875 L63.314,14.418 L64.224,14.418 L64.224,16.875 L65.472,16.875 L65.472,17.772 L64.224,17.772 L64.224,20.333 C64.64,20.151 65.043,19.956 65.433,19.748 L65.433,20.671 C65.03,20.879 64.627,21.061 64.224,21.243 L64.224,25.039 C64.224,25.793 63.86,26.183 63.132,26.183 Z M67.019,20.437 C66.863,22.66 66.356,24.61 65.498,26.3 L64.77,25.65 C65.693,23.934 66.161,21.698 66.174,18.968 L66.174,14.899 L73.025,14.899 L73.025,18.058 L70.581,18.058 L70.581,19.592 L73.363,19.592 L73.363,20.437 L70.581,20.437 L70.581,22.036 L72.765,22.036 L72.765,26.3 L71.894,26.3 L71.894,25.663 L68.371,25.663 L68.371,26.3 L67.5,26.3 L67.5,22.036 L69.671,22.036 L69.671,20.437 L67.019,20.437 Z M69.671,18.058 L67.084,18.058 L67.084,18.968 C67.084,19.176 67.071,19.384 67.071,19.592 L69.671,19.592 L69.671,18.058 Z M68.371,24.831 L71.894,24.831 L71.894,22.868 L68.371,22.868 L68.371,24.831 Z M72.115,15.77 L67.084,15.77 L67.084,17.213 L72.115,17.213 L72.115,15.77 Z M75.456,15.159 L85.583,15.159 L85.583,16.069 L83.412,16.069 L83.412,19.514 L86.259,19.514 L86.259,20.411 L83.412,20.411 L83.412,26.17 L82.463,26.17 L82.463,20.411 L78.706,20.411 C78.589,21.75 78.342,22.855 77.952,23.739 C77.458,24.831 76.639,25.676 75.495,26.274 L74.988,25.468 C76.041,24.87 76.782,24.077 77.198,23.089 C77.471,22.335 77.653,21.451 77.757,20.411 L74.754,20.411 L74.754,19.514 L77.809,19.514 C77.809,19.345 77.822,19.189 77.822,19.059 L77.822,16.069 L75.456,16.069 L75.456,15.159 Z M78.784,16.069 L78.784,19.059 C78.784,19.215 78.771,19.371 78.771,19.514 L82.463,19.514 L82.463,16.069 L78.784,16.069 Z M88.508,18.37 L89.535,14.756 L90.458,14.912 L89.717,17.473 L91.992,17.473 C92.252,16.459 92.46,15.406 92.616,14.288 L93.565,14.405 C93.396,15.497 93.188,16.511 92.954,17.473 L99.038,17.473 L99.038,18.37 L92.707,18.37 C92.551,18.89 92.395,19.384 92.213,19.852 L97.53,19.852 L97.53,20.658 C97.179,21.776 96.477,22.79 95.411,23.7 C96.464,24.324 97.751,24.896 99.259,25.416 L98.778,26.287 C97.114,25.676 95.736,25.013 94.644,24.298 C93.578,25.052 92.252,25.728 90.679,26.339 L90.185,25.468 C91.641,24.935 92.85,24.35 93.825,23.713 C92.811,22.933 92.096,22.088 91.667,21.178 C90.718,23.232 89.496,24.857 88.014,26.066 L87.533,25.208 C89.431,23.544 90.822,21.269 91.732,18.37 L88.508,18.37 Z M92.369,20.71 C92.811,21.594 93.552,22.413 94.592,23.167 C95.554,22.413 96.217,21.594 96.581,20.71 L92.369,20.71 Z M95.749,14.392 C96.685,15.107 97.452,15.822 98.076,16.537 L97.413,17.2 C96.867,16.511 96.1,15.783 95.125,15.003 L95.749,14.392 Z" id="数据开发" fill-opacity="0.8" fill="#333748" fill-rule="nonzero"></path>
                </g>
                <g id="4" class="item" data-type="HREF" data-code="bi" transform="translate(902.000000, 0.000000)">
                    <g id="矩形1">
                        <use fill="black" fill-opacity="1" filter="url(#filter-18)" xlink:href="#path-17"></use>
                        <use fill="#FFFFFF" fill-rule="evenodd" xlink:href="#path-17"></use>
                    </g>
                    <g id="步骤1" transform="translate(15.000000, 9.000000)">
                        <g id="椭圆形">
                            <use fill="black" fill-opacity="1" filter="url(#filter-20)" xlink:href="#path-19"></use>
                            <use fill="url(#linearGradient-6)" fill-rule="evenodd" xlink:href="#path-19"></use>
                        </g>
                        <text id="4" font-family="PingFangSC-Semibold, PingFang SC" font-size="14" font-weight="500" fill="#FFFFFF">
                            <tspan x="6.8" y="16">4</tspan>
                        </text>
                    </g>
                    <path d="M56.554,17.265 L56.385,17.941 C56.71,19.462 57.126,20.775 57.646,21.867 C58.153,20.554 58.426,19.02 58.478,17.265 L56.554,17.265 Z M57.217,22.803 C56.71,21.802 56.281,20.658 55.93,19.358 C55.696,19.956 55.436,20.489 55.163,20.957 L54.578,20.242 C55.345,18.786 55.865,16.823 56.125,14.353 L57.035,14.509 C56.957,15.172 56.853,15.796 56.749,16.368 L60.181,16.368 L60.181,17.265 L59.336,17.265 C59.271,19.436 58.868,21.295 58.14,22.829 C58.816,23.999 59.609,24.896 60.545,25.533 L60.038,26.3 C59.128,25.65 58.348,24.766 57.698,23.674 C57.074,24.714 56.268,25.585 55.293,26.287 L54.812,25.507 C55.826,24.805 56.619,23.908 57.217,22.803 Z M51.055,20.424 L51.926,20.528 C51.835,20.775 51.744,21.009 51.666,21.243 L54.383,21.243 L54.383,22.01 C54.097,22.868 53.616,23.609 52.94,24.233 C53.564,24.519 54.162,24.805 54.734,25.117 L54.227,25.845 C53.655,25.507 52.992,25.156 52.225,24.818 C51.367,25.416 50.288,25.897 48.988,26.261 L48.546,25.481 C49.612,25.195 50.535,24.844 51.289,24.415 C50.717,24.168 50.119,23.921 49.482,23.687 C49.82,23.115 50.119,22.582 50.379,22.062 L48.845,22.062 L48.845,21.243 L50.743,21.243 C50.86,20.957 50.964,20.684 51.055,20.424 Z M52.082,23.869 C52.732,23.349 53.226,22.738 53.538,22.062 L51.302,22.062 C51.094,22.504 50.86,22.92 50.6,23.31 C51.12,23.492 51.614,23.674 52.082,23.869 Z M49.872,14.626 C50.184,15.133 50.444,15.679 50.678,16.251 L50.002,16.563 C49.729,15.926 49.443,15.367 49.131,14.873 L49.872,14.626 Z M53.824,14.587 L54.5,14.899 C54.24,15.471 53.915,16.03 53.499,16.576 L52.836,16.238 C53.252,15.679 53.59,15.133 53.824,14.587 Z M48.871,16.875 L51.406,16.875 L51.406,14.392 L52.277,14.392 L52.277,16.875 L54.643,16.875 L54.643,17.694 L52.277,17.694 L52.277,17.837 C52.979,18.188 53.707,18.591 54.435,19.033 L53.954,19.761 C53.304,19.241 52.745,18.825 52.277,18.513 L52.277,20.203 L51.406,20.203 L51.406,17.733 C50.977,18.76 50.197,19.644 49.079,20.398 L48.624,19.644 C49.625,19.059 50.327,18.409 50.717,17.694 L48.871,17.694 L48.871,16.875 Z M63.132,26.183 L62.027,26.183 L61.832,25.299 C62.17,25.338 62.508,25.364 62.82,25.364 C63.145,25.364 63.314,25.169 63.314,24.805 L63.314,21.62 C62.794,21.815 62.287,21.997 61.78,22.153 L61.546,21.243 C62.144,21.1 62.742,20.918 63.314,20.71 L63.314,17.772 L61.754,17.772 L61.754,16.875 L63.314,16.875 L63.314,14.418 L64.224,14.418 L64.224,16.875 L65.472,16.875 L65.472,17.772 L64.224,17.772 L64.224,20.333 C64.64,20.151 65.043,19.956 65.433,19.748 L65.433,20.671 C65.03,20.879 64.627,21.061 64.224,21.243 L64.224,25.039 C64.224,25.793 63.86,26.183 63.132,26.183 Z M67.019,20.437 C66.863,22.66 66.356,24.61 65.498,26.3 L64.77,25.65 C65.693,23.934 66.161,21.698 66.174,18.968 L66.174,14.899 L73.025,14.899 L73.025,18.058 L70.581,18.058 L70.581,19.592 L73.363,19.592 L73.363,20.437 L70.581,20.437 L70.581,22.036 L72.765,22.036 L72.765,26.3 L71.894,26.3 L71.894,25.663 L68.371,25.663 L68.371,26.3 L67.5,26.3 L67.5,22.036 L69.671,22.036 L69.671,20.437 L67.019,20.437 Z M69.671,18.058 L67.084,18.058 L67.084,18.968 C67.084,19.176 67.071,19.384 67.071,19.592 L69.671,19.592 L69.671,18.058 Z M68.371,24.831 L71.894,24.831 L71.894,22.868 L68.371,22.868 L68.371,24.831 Z M72.115,15.77 L67.084,15.77 L67.084,17.213 L72.115,17.213 L72.115,15.77 Z M76.899,24.831 L82.32,24.831 C83.126,22.985 83.828,20.71 84.426,17.98 L85.349,18.227 C84.803,20.697 84.14,22.907 83.334,24.831 L86.077,24.831 L86.077,25.741 L76.899,25.741 L76.899,24.831 Z M78.316,18.617 C78.836,19.995 79.304,21.594 79.72,23.388 L78.836,23.609 C78.485,21.971 78.043,20.385 77.497,18.877 L78.316,18.617 Z M80.825,17.694 C81.267,19.124 81.67,20.775 82.034,22.621 L81.137,22.829 C80.851,21.139 80.474,19.514 80.006,17.954 L80.825,17.694 Z M80.838,14.275 C81.085,14.678 81.319,15.133 81.527,15.627 L86.285,15.627 L86.285,16.537 L76.652,16.537 L76.652,19.436 C76.6,22.296 76.158,24.584 75.313,26.3 L74.546,25.611 C75.274,24.129 75.664,22.075 75.69,19.436 L75.69,15.627 L80.513,15.627 C80.305,15.211 80.071,14.821 79.811,14.457 L80.838,14.275 Z M89.769,18.916 L89.769,21.191 L93.071,21.191 L93.071,18.916 L89.769,18.916 Z M89.717,22.049 C89.574,23.713 89.093,25.091 88.261,26.183 L87.546,25.546 C88.378,24.389 88.807,22.92 88.833,21.139 L88.833,14.899 L98.518,14.899 L98.518,24.636 C98.518,25.546 98.063,26.001 97.153,26.001 L95.658,26.001 L95.411,25.078 C95.931,25.104 96.412,25.13 96.854,25.13 C97.322,25.13 97.569,24.857 97.569,24.311 L97.569,22.049 L94.033,22.049 L94.033,25.858 L93.071,25.858 L93.071,22.049 L89.717,22.049 Z M97.569,21.191 L97.569,18.916 L94.033,18.916 L94.033,21.191 L97.569,21.191 Z M97.569,18.045 L97.569,15.809 L94.033,15.809 L94.033,18.045 L97.569,18.045 Z M93.071,15.809 L89.769,15.809 L89.769,18.045 L93.071,18.045 L93.071,15.809 Z" id="数据应用" fill-opacity="0.8" fill="#333748" fill-rule="nonzero"></path>
                </g>
                <g id="5" class="item" data-type="SSPA" data-code="jrm" transform="translate(902.000000, 60.000000)">
                    <g id="矩形1">
                        <use fill="black" fill-opacity="1" filter="url(#filter-22)" xlink:href="#path-21"></use>
                        <use fill="#FFFFFF" fill-rule="evenodd" xlink:href="#path-21"></use>
                    </g>
                    <g id="步骤1" transform="translate(15.000000, 9.000000)">
                        <g id="椭圆形">
                            <use fill="black" fill-opacity="1" filter="url(#filter-24)" xlink:href="#path-23"></use>
                            <use fill="url(#linearGradient-6)" fill-rule="evenodd" xlink:href="#path-23"></use>
                        </g>
                        <text id="5" font-family="PingFangSC-Semibold, PingFang SC" font-size="14" font-weight="500" fill="#FFFFFF">
                            <tspan x="6.8" y="16">5</tspan>
                        </text>
                    </g>
                    <path d="M56.554,17.265 L56.385,17.941 C56.71,19.462 57.126,20.775 57.646,21.867 C58.153,20.554 58.426,19.02 58.478,17.265 L56.554,17.265 Z M57.217,22.803 C56.71,21.802 56.281,20.658 55.93,19.358 C55.696,19.956 55.436,20.489 55.163,20.957 L54.578,20.242 C55.345,18.786 55.865,16.823 56.125,14.353 L57.035,14.509 C56.957,15.172 56.853,15.796 56.749,16.368 L60.181,16.368 L60.181,17.265 L59.336,17.265 C59.271,19.436 58.868,21.295 58.14,22.829 C58.816,23.999 59.609,24.896 60.545,25.533 L60.038,26.3 C59.128,25.65 58.348,24.766 57.698,23.674 C57.074,24.714 56.268,25.585 55.293,26.287 L54.812,25.507 C55.826,24.805 56.619,23.908 57.217,22.803 Z M51.055,20.424 L51.926,20.528 C51.835,20.775 51.744,21.009 51.666,21.243 L54.383,21.243 L54.383,22.01 C54.097,22.868 53.616,23.609 52.94,24.233 C53.564,24.519 54.162,24.805 54.734,25.117 L54.227,25.845 C53.655,25.507 52.992,25.156 52.225,24.818 C51.367,25.416 50.288,25.897 48.988,26.261 L48.546,25.481 C49.612,25.195 50.535,24.844 51.289,24.415 C50.717,24.168 50.119,23.921 49.482,23.687 C49.82,23.115 50.119,22.582 50.379,22.062 L48.845,22.062 L48.845,21.243 L50.743,21.243 C50.86,20.957 50.964,20.684 51.055,20.424 Z M52.082,23.869 C52.732,23.349 53.226,22.738 53.538,22.062 L51.302,22.062 C51.094,22.504 50.86,22.92 50.6,23.31 C51.12,23.492 51.614,23.674 52.082,23.869 Z M49.872,14.626 C50.184,15.133 50.444,15.679 50.678,16.251 L50.002,16.563 C49.729,15.926 49.443,15.367 49.131,14.873 L49.872,14.626 Z M53.824,14.587 L54.5,14.899 C54.24,15.471 53.915,16.03 53.499,16.576 L52.836,16.238 C53.252,15.679 53.59,15.133 53.824,14.587 Z M48.871,16.875 L51.406,16.875 L51.406,14.392 L52.277,14.392 L52.277,16.875 L54.643,16.875 L54.643,17.694 L52.277,17.694 L52.277,17.837 C52.979,18.188 53.707,18.591 54.435,19.033 L53.954,19.761 C53.304,19.241 52.745,18.825 52.277,18.513 L52.277,20.203 L51.406,20.203 L51.406,17.733 C50.977,18.76 50.197,19.644 49.079,20.398 L48.624,19.644 C49.625,19.059 50.327,18.409 50.717,17.694 L48.871,17.694 L48.871,16.875 Z M63.132,26.183 L62.027,26.183 L61.832,25.299 C62.17,25.338 62.508,25.364 62.82,25.364 C63.145,25.364 63.314,25.169 63.314,24.805 L63.314,21.62 C62.794,21.815 62.287,21.997 61.78,22.153 L61.546,21.243 C62.144,21.1 62.742,20.918 63.314,20.71 L63.314,17.772 L61.754,17.772 L61.754,16.875 L63.314,16.875 L63.314,14.418 L64.224,14.418 L64.224,16.875 L65.472,16.875 L65.472,17.772 L64.224,17.772 L64.224,20.333 C64.64,20.151 65.043,19.956 65.433,19.748 L65.433,20.671 C65.03,20.879 64.627,21.061 64.224,21.243 L64.224,25.039 C64.224,25.793 63.86,26.183 63.132,26.183 Z M67.019,20.437 C66.863,22.66 66.356,24.61 65.498,26.3 L64.77,25.65 C65.693,23.934 66.161,21.698 66.174,18.968 L66.174,14.899 L73.025,14.899 L73.025,18.058 L70.581,18.058 L70.581,19.592 L73.363,19.592 L73.363,20.437 L70.581,20.437 L70.581,22.036 L72.765,22.036 L72.765,26.3 L71.894,26.3 L71.894,25.663 L68.371,25.663 L68.371,26.3 L67.5,26.3 L67.5,22.036 L69.671,22.036 L69.671,20.437 L67.019,20.437 Z M69.671,18.058 L67.084,18.058 L67.084,18.968 C67.084,19.176 67.071,19.384 67.071,19.592 L69.671,19.592 L69.671,18.058 Z M68.371,24.831 L71.894,24.831 L71.894,22.868 L68.371,22.868 L68.371,24.831 Z M72.115,15.77 L67.084,15.77 L67.084,17.213 L72.115,17.213 L72.115,15.77 Z M76.366,18.825 L76.366,20.996 L78.459,20.996 L78.459,18.825 L76.366,18.825 Z M78.459,17.98 L78.459,15.783 L76.366,15.783 L76.366,17.98 L78.459,17.98 Z M76.353,21.841 C76.275,23.661 75.963,25.156 75.43,26.326 L74.728,25.676 C75.248,24.506 75.508,22.998 75.521,21.178 L75.521,14.938 L79.317,14.938 L79.317,25.078 C79.317,25.858 78.953,26.261 78.225,26.261 L77.185,26.261 L76.964,25.429 C77.328,25.455 77.653,25.481 77.965,25.481 C78.29,25.481 78.459,25.247 78.459,24.779 L78.459,21.841 L76.353,21.841 Z M81.293,20.554 L81.293,26.313 L80.409,26.313 L80.409,14.925 L85.674,14.925 C85.674,16.537 85.596,17.603 85.44,18.123 C85.284,18.656 84.803,18.929 83.984,18.929 L82.931,18.929 L82.684,18.123 C82.905,18.123 83.191,18.136 83.555,18.136 C83.867,18.136 84.088,18.11 84.244,18.071 C84.4,18.019 84.517,17.889 84.595,17.694 C84.686,17.408 84.738,16.771 84.764,15.783 L81.293,15.783 L81.293,19.722 L85.713,19.722 L85.713,20.515 C85.466,21.854 85.037,22.998 84.439,23.934 C85.024,24.506 85.713,25.013 86.506,25.468 L86.038,26.261 C85.206,25.78 84.504,25.247 83.906,24.662 C83.334,25.325 82.671,25.858 81.891,26.274 L81.397,25.52 C82.138,25.117 82.762,24.61 83.282,23.986 C82.45,22.972 81.891,21.828 81.605,20.554 L81.293,20.554 Z M82.411,20.554 C82.684,21.555 83.152,22.452 83.815,23.258 C84.296,22.478 84.647,21.581 84.881,20.554 L82.411,20.554 Z M91.472,14.34 L92.421,14.47 C92.278,14.821 92.109,15.146 91.927,15.458 L97.595,15.458 L97.595,16.212 C96.763,17.174 95.749,17.993 94.553,18.669 C96.022,19.293 97.66,19.696 99.467,19.878 L99.038,20.749 C96.984,20.515 95.151,19.995 93.539,19.189 C91.953,19.917 90.094,20.45 87.988,20.775 L87.559,19.891 C89.444,19.631 91.095,19.215 92.525,18.643 C91.797,18.214 91.121,17.72 90.497,17.174 C90.003,17.616 89.47,18.019 88.872,18.383 L88.3,17.629 C89.86,16.732 90.926,15.64 91.472,14.34 Z M93.526,18.188 C94.579,17.668 95.489,17.044 96.256,16.342 L91.29,16.342 L91.121,16.55 C91.849,17.187 92.655,17.733 93.526,18.188 Z M92.733,20.125 L93.656,20.125 C93.656,20.645 93.604,21.139 93.526,21.607 L98.102,21.607 C98.076,23.804 97.881,25.117 97.504,25.546 C97.127,25.975 96.477,26.196 95.554,26.196 C95.138,26.196 94.631,26.17 94.033,26.144 L93.799,25.299 L95.333,25.364 C96.113,25.351 96.594,25.182 96.802,24.87 C96.997,24.558 97.114,23.752 97.153,22.452 L93.305,22.452 C93.201,22.79 93.058,23.115 92.889,23.427 C92.226,24.597 90.705,25.572 88.313,26.326 L87.689,25.559 C89.821,24.935 91.238,24.142 91.914,23.193 C92.07,22.959 92.213,22.712 92.317,22.452 L88.443,22.452 L88.443,21.607 L92.577,21.607 C92.681,21.139 92.733,20.645 92.733,20.125 Z" id="数据服务" fill-opacity="0.8" fill="#333748" fill-rule="nonzero"></path>
                </g>
                <g id="元数据" class="item" data-type="HREF" data-code="elementSource" transform="translate(218.000000, 100.000000)">
                    <use id="矩形1" stroke-opacity="0.3" stroke="#198DFF" mask="url(#mask-26)" stroke-width="2" fill="#FFFFFF" stroke-dasharray="2,2" xlink:href="#path-25"></use>
                    <path d="M42.95,15.107 L51.933,15.107 L51.933,16.017 L42.95,16.017 L42.95,15.107 Z M41.949,18.929 L53.064,18.929 L53.064,19.839 L49.476,19.839 L49.476,24.688 C49.476,25.052 49.658,25.247 50.048,25.247 L51.491,25.247 C51.777,25.247 51.972,25.143 52.076,24.948 C52.232,24.714 52.323,24.012 52.375,22.842 L53.233,23.115 C53.142,24.532 52.973,25.39 52.713,25.689 C52.492,25.949 52.141,26.092 51.673,26.092 L49.788,26.092 C48.969,26.092 48.566,25.689 48.566,24.883 L48.566,19.839 L46.226,19.839 L46.226,20.034 C46.187,21.724 45.836,23.089 45.186,24.116 C44.536,25.065 43.496,25.806 42.053,26.339 L41.546,25.546 C42.95,25.026 43.925,24.35 44.484,23.492 C45.004,22.608 45.29,21.451 45.316,20.034 L45.316,19.839 L41.949,19.839 L41.949,18.929 Z M62.554,17.265 L62.385,17.941 C62.71,19.462 63.126,20.775 63.646,21.867 C64.153,20.554 64.426,19.02 64.478,17.265 L62.554,17.265 Z M63.217,22.803 C62.71,21.802 62.281,20.658 61.93,19.358 C61.696,19.956 61.436,20.489 61.163,20.957 L60.578,20.242 C61.345,18.786 61.865,16.823 62.125,14.353 L63.035,14.509 C62.957,15.172 62.853,15.796 62.749,16.368 L66.181,16.368 L66.181,17.265 L65.336,17.265 C65.271,19.436 64.868,21.295 64.14,22.829 C64.816,23.999 65.609,24.896 66.545,25.533 L66.038,26.3 C65.128,25.65 64.348,24.766 63.698,23.674 C63.074,24.714 62.268,25.585 61.293,26.287 L60.812,25.507 C61.826,24.805 62.619,23.908 63.217,22.803 Z M57.055,20.424 L57.926,20.528 C57.835,20.775 57.744,21.009 57.666,21.243 L60.383,21.243 L60.383,22.01 C60.097,22.868 59.616,23.609 58.94,24.233 C59.564,24.519 60.162,24.805 60.734,25.117 L60.227,25.845 C59.655,25.507 58.992,25.156 58.225,24.818 C57.367,25.416 56.288,25.897 54.988,26.261 L54.546,25.481 C55.612,25.195 56.535,24.844 57.289,24.415 C56.717,24.168 56.119,23.921 55.482,23.687 C55.82,23.115 56.119,22.582 56.379,22.062 L54.845,22.062 L54.845,21.243 L56.743,21.243 C56.86,20.957 56.964,20.684 57.055,20.424 Z M58.082,23.869 C58.732,23.349 59.226,22.738 59.538,22.062 L57.302,22.062 C57.094,22.504 56.86,22.92 56.6,23.31 C57.12,23.492 57.614,23.674 58.082,23.869 Z M55.872,14.626 C56.184,15.133 56.444,15.679 56.678,16.251 L56.002,16.563 C55.729,15.926 55.443,15.367 55.131,14.873 L55.872,14.626 Z M59.824,14.587 L60.5,14.899 C60.24,15.471 59.915,16.03 59.499,16.576 L58.836,16.238 C59.252,15.679 59.59,15.133 59.824,14.587 Z M54.871,16.875 L57.406,16.875 L57.406,14.392 L58.277,14.392 L58.277,16.875 L60.643,16.875 L60.643,17.694 L58.277,17.694 L58.277,17.837 C58.979,18.188 59.707,18.591 60.435,19.033 L59.954,19.761 C59.304,19.241 58.745,18.825 58.277,18.513 L58.277,20.203 L57.406,20.203 L57.406,17.733 C56.977,18.76 56.197,19.644 55.079,20.398 L54.624,19.644 C55.625,19.059 56.327,18.409 56.717,17.694 L54.871,17.694 L54.871,16.875 Z M69.132,26.183 L68.027,26.183 L67.832,25.299 C68.17,25.338 68.508,25.364 68.82,25.364 C69.145,25.364 69.314,25.169 69.314,24.805 L69.314,21.62 C68.794,21.815 68.287,21.997 67.78,22.153 L67.546,21.243 C68.144,21.1 68.742,20.918 69.314,20.71 L69.314,17.772 L67.754,17.772 L67.754,16.875 L69.314,16.875 L69.314,14.418 L70.224,14.418 L70.224,16.875 L71.472,16.875 L71.472,17.772 L70.224,17.772 L70.224,20.333 C70.64,20.151 71.043,19.956 71.433,19.748 L71.433,20.671 C71.03,20.879 70.627,21.061 70.224,21.243 L70.224,25.039 C70.224,25.793 69.86,26.183 69.132,26.183 Z M73.019,20.437 C72.863,22.66 72.356,24.61 71.498,26.3 L70.77,25.65 C71.693,23.934 72.161,21.698 72.174,18.968 L72.174,14.899 L79.025,14.899 L79.025,18.058 L76.581,18.058 L76.581,19.592 L79.363,19.592 L79.363,20.437 L76.581,20.437 L76.581,22.036 L78.765,22.036 L78.765,26.3 L77.894,26.3 L77.894,25.663 L74.371,25.663 L74.371,26.3 L73.5,26.3 L73.5,22.036 L75.671,22.036 L75.671,20.437 L73.019,20.437 Z M75.671,18.058 L73.084,18.058 L73.084,18.968 C73.084,19.176 73.071,19.384 73.071,19.592 L75.671,19.592 L75.671,18.058 Z M74.371,24.831 L77.894,24.831 L77.894,22.868 L74.371,22.868 L74.371,24.831 Z M78.115,15.77 L73.084,15.77 L73.084,17.213 L78.115,17.213 L78.115,15.77 Z" fill-opacity="0.8" fill="#333748" fill-rule="nonzero"></path>
                </g>
                <path id="箭头" d="M278.652428,73.5000372 L283.042345,82.554242 L274.043014,82.444494 L278.652428,73.5000372 Z M278.853632,98.0043127 L277.853707,97.9921184 L277.878095,95.9922671 L278.878021,96.0044614 L278.853632,98.0043127 Z M278.902409,94.0046101 L277.902483,93.9924158 L277.926872,91.9925646 L278.926798,92.0047588 L278.902409,94.0046101 Z M278.951186,90.0049075 L277.95126,89.9927133 L277.975649,87.992862 L278.975574,88.0050562 L278.951186,90.0049075 Z M278.999963,86.0052049 L278.000037,85.9930107 L278.024426,83.9931594 L279.024351,84.0053536 L278.999963,86.0052049 Z" fill="url(#linearGradient-27)" fill-rule="nonzero"></path>
                <g id="数据建模" class="item" data-type="HREF" data-code="model" transform="translate(436.000000, 100.000000)">
                    <use id="矩形1" stroke-opacity="0.3" stroke="#198DFF" mask="url(#mask-29)" stroke-width="2" fill="#FFFFFF" stroke-dasharray="2,2" xlink:href="#path-28"></use>
                    <path d="M42.554,17.265 L42.385,17.941 C42.71,19.462 43.126,20.775 43.646,21.867 C44.153,20.554 44.426,19.02 44.478,17.265 L42.554,17.265 Z M43.217,22.803 C42.71,21.802 42.281,20.658 41.93,19.358 C41.696,19.956 41.436,20.489 41.163,20.957 L40.578,20.242 C41.345,18.786 41.865,16.823 42.125,14.353 L43.035,14.509 C42.957,15.172 42.853,15.796 42.749,16.368 L46.181,16.368 L46.181,17.265 L45.336,17.265 C45.271,19.436 44.868,21.295 44.14,22.829 C44.816,23.999 45.609,24.896 46.545,25.533 L46.038,26.3 C45.128,25.65 44.348,24.766 43.698,23.674 C43.074,24.714 42.268,25.585 41.293,26.287 L40.812,25.507 C41.826,24.805 42.619,23.908 43.217,22.803 Z M37.055,20.424 L37.926,20.528 C37.835,20.775 37.744,21.009 37.666,21.243 L40.383,21.243 L40.383,22.01 C40.097,22.868 39.616,23.609 38.94,24.233 C39.564,24.519 40.162,24.805 40.734,25.117 L40.227,25.845 C39.655,25.507 38.992,25.156 38.225,24.818 C37.367,25.416 36.288,25.897 34.988,26.261 L34.546,25.481 C35.612,25.195 36.535,24.844 37.289,24.415 C36.717,24.168 36.119,23.921 35.482,23.687 C35.82,23.115 36.119,22.582 36.379,22.062 L34.845,22.062 L34.845,21.243 L36.743,21.243 C36.86,20.957 36.964,20.684 37.055,20.424 Z M38.082,23.869 C38.732,23.349 39.226,22.738 39.538,22.062 L37.302,22.062 C37.094,22.504 36.86,22.92 36.6,23.31 C37.12,23.492 37.614,23.674 38.082,23.869 Z M35.872,14.626 C36.184,15.133 36.444,15.679 36.678,16.251 L36.002,16.563 C35.729,15.926 35.443,15.367 35.131,14.873 L35.872,14.626 Z M39.824,14.587 L40.5,14.899 C40.24,15.471 39.915,16.03 39.499,16.576 L38.836,16.238 C39.252,15.679 39.59,15.133 39.824,14.587 Z M34.871,16.875 L37.406,16.875 L37.406,14.392 L38.277,14.392 L38.277,16.875 L40.643,16.875 L40.643,17.694 L38.277,17.694 L38.277,17.837 C38.979,18.188 39.707,18.591 40.435,19.033 L39.954,19.761 C39.304,19.241 38.745,18.825 38.277,18.513 L38.277,20.203 L37.406,20.203 L37.406,17.733 C36.977,18.76 36.197,19.644 35.079,20.398 L34.624,19.644 C35.625,19.059 36.327,18.409 36.717,17.694 L34.871,17.694 L34.871,16.875 Z M49.132,26.183 L48.027,26.183 L47.832,25.299 C48.17,25.338 48.508,25.364 48.82,25.364 C49.145,25.364 49.314,25.169 49.314,24.805 L49.314,21.62 C48.794,21.815 48.287,21.997 47.78,22.153 L47.546,21.243 C48.144,21.1 48.742,20.918 49.314,20.71 L49.314,17.772 L47.754,17.772 L47.754,16.875 L49.314,16.875 L49.314,14.418 L50.224,14.418 L50.224,16.875 L51.472,16.875 L51.472,17.772 L50.224,17.772 L50.224,20.333 C50.64,20.151 51.043,19.956 51.433,19.748 L51.433,20.671 C51.03,20.879 50.627,21.061 50.224,21.243 L50.224,25.039 C50.224,25.793 49.86,26.183 49.132,26.183 Z M53.019,20.437 C52.863,22.66 52.356,24.61 51.498,26.3 L50.77,25.65 C51.693,23.934 52.161,21.698 52.174,18.968 L52.174,14.899 L59.025,14.899 L59.025,18.058 L56.581,18.058 L56.581,19.592 L59.363,19.592 L59.363,20.437 L56.581,20.437 L56.581,22.036 L58.765,22.036 L58.765,26.3 L57.894,26.3 L57.894,25.663 L54.371,25.663 L54.371,26.3 L53.5,26.3 L53.5,22.036 L55.671,22.036 L55.671,20.437 L53.019,20.437 Z M55.671,18.058 L53.084,18.058 L53.084,18.968 C53.084,19.176 53.071,19.384 53.071,19.592 L55.671,19.592 L55.671,18.058 Z M54.371,24.831 L57.894,24.831 L57.894,22.868 L54.371,22.868 L54.371,24.831 Z M58.115,15.77 L53.084,15.77 L53.084,17.213 L58.115,17.213 L58.115,15.77 Z M71.362,19.709 L68.58,19.709 L68.58,20.749 L71.622,20.749 L71.622,21.516 L68.58,21.516 L68.58,22.595 L71.999,22.595 L71.999,23.388 L68.58,23.388 L68.58,24.675 L67.67,24.675 L67.67,23.388 L64.719,23.388 L64.719,22.595 L67.67,22.595 L67.67,21.516 L65.122,21.516 L65.122,20.749 L67.67,20.749 L67.67,19.709 L65.395,19.709 L65.395,18.929 L67.67,18.929 L67.67,17.889 L64.758,17.889 L64.758,17.109 L67.67,17.109 L67.67,16.082 L65.395,16.082 L65.395,15.302 L67.67,15.302 L67.67,14.353 L68.58,14.353 L68.58,15.302 L71.362,15.302 L71.362,17.109 L72.233,17.109 L72.233,17.889 L71.362,17.889 L71.362,19.709 Z M68.58,16.082 L68.58,17.109 L70.452,17.109 L70.452,16.082 L68.58,16.082 Z M68.58,17.889 L68.58,18.929 L70.452,18.929 L70.452,17.889 L68.58,17.889 Z M67.969,25.143 C69.399,25.143 70.868,25.117 72.376,25.078 L72.22,25.975 L68.372,25.975 C66.032,25.975 64.355,25.637 63.341,24.961 C63.172,24.831 63.029,24.714 62.899,24.584 C62.483,25.195 61.963,25.728 61.365,26.183 L60.754,25.39 C61.365,24.948 61.872,24.428 62.288,23.83 C61.781,23.102 61.365,22.179 61.053,21.061 L61.833,20.775 C62.093,21.698 62.405,22.452 62.743,23.024 C63.185,22.101 63.445,21.022 63.523,19.787 L61.118,19.787 L61.118,19.059 C61.872,18.097 62.574,17.057 63.198,15.939 L61.066,15.939 L61.066,15.055 L64.251,15.055 L64.251,15.822 C63.601,17.018 62.951,18.045 62.327,18.929 L64.368,18.929 L64.368,19.488 C64.316,21.204 63.965,22.66 63.341,23.856 C63.549,24.077 63.757,24.246 63.978,24.376 C64.862,24.87 66.201,25.117 67.969,25.143 Z M77.537,15.458 L79.435,15.458 L79.435,14.418 L80.306,14.418 L80.306,15.458 L82.399,15.458 L82.399,14.418 L83.283,14.418 L83.283,15.458 L85.298,15.458 L85.298,16.29 L83.283,16.29 L83.283,17.265 L82.399,17.265 L82.399,16.29 L80.306,16.29 L80.306,17.265 L79.435,17.265 L79.435,16.29 L77.537,16.29 L77.537,15.458 Z M81.19,23.622 C81.034,23.947 80.839,24.246 80.631,24.506 C80.033,25.26 78.993,25.845 77.498,26.274 L77.16,25.494 C78.46,25.143 79.383,24.636 79.955,23.973 C80.085,23.804 80.215,23.635 80.319,23.453 L77.29,23.453 L77.29,22.595 L80.709,22.595 C80.813,22.283 80.891,21.945 80.956,21.607 L78.226,21.607 L78.226,17.668 L84.453,17.668 L84.453,21.607 L81.788,21.607 C81.736,21.971 81.658,22.296 81.58,22.595 L85.324,22.595 L85.324,23.453 L82.035,23.453 C82.789,24.337 83.933,25.052 85.467,25.598 L84.843,26.339 C83.153,25.611 81.944,24.714 81.19,23.622 Z M76.276,19.644 L76.276,26.261 L75.392,26.261 L75.392,19.787 C74.989,21.009 74.482,22.127 73.858,23.128 L73.455,22.114 C74.352,20.866 75.002,19.462 75.392,17.876 L75.392,17.798 L73.884,17.798 L73.884,16.953 L75.392,16.953 L75.392,14.431 L76.276,14.431 L76.276,16.953 L77.641,16.953 L77.641,17.798 L76.276,17.798 L76.276,18.656 C76.835,19.332 77.407,20.112 78.005,20.983 L77.511,21.724 C77.03,20.866 76.614,20.177 76.276,19.644 Z M83.608,20.879 L83.608,19.995 L79.071,19.995 L79.071,20.879 L83.608,20.879 Z M79.071,19.293 L83.608,19.293 L83.608,18.422 L79.071,18.422 L79.071,19.293 Z" fill-opacity="0.8" fill="#333748" fill-rule="nonzero"></path>
                </g>
                <path id="箭头" d="M496.652428,73.5000372 L501.042345,82.554242 L492.043014,82.444494 L496.652428,73.5000372 Z M496.853632,98.0043127 L495.853707,97.9921184 L495.878095,95.9922671 L496.878021,96.0044614 L496.853632,98.0043127 Z M496.902409,94.0046101 L495.902483,93.9924158 L495.926872,91.9925646 L496.926798,92.0047588 L496.902409,94.0046101 Z M496.951186,90.0049075 L495.95126,89.9927133 L495.975649,87.992862 L496.975574,88.0050562 L496.951186,90.0049075 Z M496.999963,86.0052049 L496.000037,85.9930107 L496.024426,83.9931594 L497.024351,84.0053536 L496.999963,86.0052049 Z" fill="url(#linearGradient-27)" fill-rule="nonzero"></path>
                <g id="数据质量" class="item" data-type="HREF" data-code="quality" transform="translate(639.000000, 100.000000)">
                    <use id="矩形1" stroke-opacity="0.3" stroke="#198DFF" mask="url(#mask-31)" stroke-width="2" fill="#FFFFFF" stroke-dasharray="2,2" xlink:href="#path-30"></use>
                    <path d="M42.554,17.265 L42.385,17.941 C42.71,19.462 43.126,20.775 43.646,21.867 C44.153,20.554 44.426,19.02 44.478,17.265 L42.554,17.265 Z M43.217,22.803 C42.71,21.802 42.281,20.658 41.93,19.358 C41.696,19.956 41.436,20.489 41.163,20.957 L40.578,20.242 C41.345,18.786 41.865,16.823 42.125,14.353 L43.035,14.509 C42.957,15.172 42.853,15.796 42.749,16.368 L46.181,16.368 L46.181,17.265 L45.336,17.265 C45.271,19.436 44.868,21.295 44.14,22.829 C44.816,23.999 45.609,24.896 46.545,25.533 L46.038,26.3 C45.128,25.65 44.348,24.766 43.698,23.674 C43.074,24.714 42.268,25.585 41.293,26.287 L40.812,25.507 C41.826,24.805 42.619,23.908 43.217,22.803 Z M37.055,20.424 L37.926,20.528 C37.835,20.775 37.744,21.009 37.666,21.243 L40.383,21.243 L40.383,22.01 C40.097,22.868 39.616,23.609 38.94,24.233 C39.564,24.519 40.162,24.805 40.734,25.117 L40.227,25.845 C39.655,25.507 38.992,25.156 38.225,24.818 C37.367,25.416 36.288,25.897 34.988,26.261 L34.546,25.481 C35.612,25.195 36.535,24.844 37.289,24.415 C36.717,24.168 36.119,23.921 35.482,23.687 C35.82,23.115 36.119,22.582 36.379,22.062 L34.845,22.062 L34.845,21.243 L36.743,21.243 C36.86,20.957 36.964,20.684 37.055,20.424 Z M38.082,23.869 C38.732,23.349 39.226,22.738 39.538,22.062 L37.302,22.062 C37.094,22.504 36.86,22.92 36.6,23.31 C37.12,23.492 37.614,23.674 38.082,23.869 Z M35.872,14.626 C36.184,15.133 36.444,15.679 36.678,16.251 L36.002,16.563 C35.729,15.926 35.443,15.367 35.131,14.873 L35.872,14.626 Z M39.824,14.587 L40.5,14.899 C40.24,15.471 39.915,16.03 39.499,16.576 L38.836,16.238 C39.252,15.679 39.59,15.133 39.824,14.587 Z M34.871,16.875 L37.406,16.875 L37.406,14.392 L38.277,14.392 L38.277,16.875 L40.643,16.875 L40.643,17.694 L38.277,17.694 L38.277,17.837 C38.979,18.188 39.707,18.591 40.435,19.033 L39.954,19.761 C39.304,19.241 38.745,18.825 38.277,18.513 L38.277,20.203 L37.406,20.203 L37.406,17.733 C36.977,18.76 36.197,19.644 35.079,20.398 L34.624,19.644 C35.625,19.059 36.327,18.409 36.717,17.694 L34.871,17.694 L34.871,16.875 Z M49.132,26.183 L48.027,26.183 L47.832,25.299 C48.17,25.338 48.508,25.364 48.82,25.364 C49.145,25.364 49.314,25.169 49.314,24.805 L49.314,21.62 C48.794,21.815 48.287,21.997 47.78,22.153 L47.546,21.243 C48.144,21.1 48.742,20.918 49.314,20.71 L49.314,17.772 L47.754,17.772 L47.754,16.875 L49.314,16.875 L49.314,14.418 L50.224,14.418 L50.224,16.875 L51.472,16.875 L51.472,17.772 L50.224,17.772 L50.224,20.333 C50.64,20.151 51.043,19.956 51.433,19.748 L51.433,20.671 C51.03,20.879 50.627,21.061 50.224,21.243 L50.224,25.039 C50.224,25.793 49.86,26.183 49.132,26.183 Z M53.019,20.437 C52.863,22.66 52.356,24.61 51.498,26.3 L50.77,25.65 C51.693,23.934 52.161,21.698 52.174,18.968 L52.174,14.899 L59.025,14.899 L59.025,18.058 L56.581,18.058 L56.581,19.592 L59.363,19.592 L59.363,20.437 L56.581,20.437 L56.581,22.036 L58.765,22.036 L58.765,26.3 L57.894,26.3 L57.894,25.663 L54.371,25.663 L54.371,26.3 L53.5,26.3 L53.5,22.036 L55.671,22.036 L55.671,20.437 L53.019,20.437 Z M55.671,18.058 L53.084,18.058 L53.084,18.968 C53.084,19.176 53.071,19.384 53.071,19.592 L55.671,19.592 L55.671,18.058 Z M54.371,24.831 L57.894,24.831 L57.894,22.868 L54.371,22.868 L54.371,24.831 Z M58.115,15.77 L53.084,15.77 L53.084,17.213 L58.115,17.213 L58.115,15.77 Z M62.821,18.175 L62.821,19.319 C62.756,22.179 62.197,24.467 61.131,26.183 L60.481,25.494 C61.365,24.012 61.846,21.945 61.924,19.319 L61.924,15.25 C65.356,15.224 68.45,14.951 71.193,14.457 L71.661,15.302 C69.035,15.744 66.084,15.991 62.821,16.043 L62.821,17.317 L67.163,17.317 C67.228,16.927 67.28,16.524 67.319,16.134 L68.255,16.251 C68.216,16.615 68.164,16.979 68.112,17.317 L72.233,17.317 L72.233,18.175 L67.969,18.175 C67.891,18.617 67.8,19.02 67.696,19.41 L71.037,19.41 L71.037,23.83 L70.14,23.83 L70.14,20.268 L65.005,20.268 L65.005,23.882 L64.108,23.882 L64.108,19.41 L66.747,19.41 C66.851,18.994 66.942,18.591 67.02,18.175 L62.821,18.175 Z M68.32,23.531 C69.763,24.077 71.076,24.727 72.259,25.494 L71.739,26.287 C70.478,25.429 69.178,24.74 67.852,24.233 L68.32,23.531 Z M67.358,20.788 L68.268,20.853 C68.112,22.387 67.644,23.57 66.864,24.376 C66.058,25.182 64.823,25.832 63.172,26.3 L62.665,25.442 C64.199,25.052 65.33,24.519 66.058,23.817 C66.786,23.115 67.215,22.101 67.358,20.788 Z M74.989,19.826 L84.037,19.826 L84.037,23.141 L79.955,23.141 L79.955,23.869 L84.362,23.869 L84.362,24.493 L79.955,24.493 L79.955,25.26 L85.311,25.26 L85.311,25.988 L73.689,25.988 L73.689,25.26 L79.019,25.26 L79.019,24.493 L74.664,24.493 L74.664,23.869 L79.019,23.869 L79.019,23.141 L74.989,23.141 L74.989,19.826 Z M83.14,22.556 L83.14,21.763 L79.955,21.763 L79.955,22.556 L83.14,22.556 Z M79.019,22.556 L79.019,21.763 L75.886,21.763 L75.886,22.556 L79.019,22.556 Z M75.886,21.217 L79.019,21.217 L79.019,20.411 L75.886,20.411 L75.886,21.217 Z M79.955,20.411 L79.955,21.217 L83.14,21.217 L83.14,20.411 L79.955,20.411 Z M75.275,14.587 L83.764,14.587 L83.764,17.798 L75.275,17.798 L75.275,14.587 Z M82.854,17.239 L82.854,16.472 L76.185,16.472 L76.185,17.239 L82.854,17.239 Z M76.185,15.913 L82.854,15.913 L82.854,15.159 L76.185,15.159 L76.185,15.913 Z M73.676,18.474 L85.324,18.474 L85.324,19.176 L73.676,19.176 L73.676,18.474 Z" fill-opacity="0.8" fill="#333748" fill-rule="nonzero"></path>
                </g>
                <path id="箭头" d="M699.896312,53.5015242 L704.286229,62.555729 L695.286899,62.4459811 L699.896312,53.5015242 Z M699.853632,98.0043127 L698.853707,97.9921184 L698.878095,95.9922671 L699.878021,96.0044614 L699.853632,98.0043127 Z M699.902409,94.0046101 L698.902483,93.9924158 L698.926872,91.9925646 L699.926798,92.0047588 L699.902409,94.0046101 Z M699.951186,90.0049075 L698.95126,89.9927133 L698.975649,87.992862 L699.975574,88.0050562 L699.951186,90.0049075 Z M699.999963,86.0052049 L699.000037,85.9930107 L699.024426,83.9931594 L700.024351,84.0053536 L699.999963,86.0052049 Z M700.04874,82.0055023 L699.048814,81.9933081 L699.073202,79.9934568 L700.073128,80.005651 L700.04874,82.0055023 Z M700.097517,78.0057997 L699.097591,77.9936055 L699.121979,75.9937542 L700.121905,76.0059484 L700.097517,78.0057997 Z M700.146293,74.0060971 L699.146368,73.9939029 L699.170756,71.9940516 L700.170682,72.0062458 L700.146293,74.0060971 Z M700.19507,70.0063945 L699.195145,69.9942003 L699.219533,67.994349 L700.219459,68.0065432 L700.19507,70.0063945 Z M700.243847,66.0066919 L699.243921,65.9944977 L699.26831,63.9946464 L700.268236,64.0068406 L700.243847,66.0066919 Z" fill="url(#linearGradient-32)" fill-rule="nonzero"></path>
            </g>
        </g>
    </g>
</svg>